<svg id="_14" data-name="14" xmlns="http://www.w3.org/2000/svg" width="259" height="77" viewBox="0 0 259 77">
  <path id="Path_1243" data-name="Path 1243" d="M258.995,13.913c0-8.1-5.742-13.906-13.791-13.906Q129.513,0,13.824,0C5.756,0,.026,5.8,0,13.886v49.2a13.5,13.5,0,0,0,1.835,7.226C4.619,74.878,8.733,77,14.038,77q57.667-.019,115.331,0H244.938c8.368,0,14.057-5.722,14.059-14.122Q259,38.387,258.995,13.913ZM54.1,12.043c.959,5.448-4.348,11.634-9.642,11.143C43.955,17.744,48.908,12.067,54.1,12.043Zm3.192,47.4a6.2,6.2,0,0,1-6.73,1A16.053,16.053,0,0,0,46.7,59.2a10.706,10.706,0,0,0-5.6.885c-4.051,1.733-6.169,1.355-9-2.036-5.3-6.352-8.262-13.627-7.353-22.024.59-5.45,3.207-9.692,8.711-11.55a10.151,10.151,0,0,1,6.814.173c.787.282,1.573.58,2.338.919a5.108,5.108,0,0,0,4.178.034,21.862,21.862,0,0,1,4.871-1.619c4.7-.722,8.409,1,11.479,4.649-8.054,5.323-6.492,15.99,1.216,19.491-1.581,4.254-3.516,8.29-7.063,11.317ZM224.7,19.868a4.207,4.207,0,0,1,5-3.217,4.075,4.075,0,0,1,2.588,5.229h-5.845c.24,2.349,1.377,2.839,5.243,2.322a2.155,2.155,0,0,1,.24,1.333,7.725,7.725,0,0,1-4.686.188c-2.226-.7-3.274-3.164-2.542-5.859Zm-35.129-3.025a4.366,4.366,0,0,1,1.5-.067c.417.241.149.691.348,1.027.086-.031.211-.039.273-.1a3.245,3.245,0,0,1,3.715-.914c1.477.551,1.919,1.877,1.964,3.294.07,1.911.017,3.824.017,5.775h-1.981c0-1.848.031-3.643,0-5.436-.031-1.415-.741-2.166-1.919-2.12a1.938,1.938,0,0,0-1.919,2.166c-.031,1.759,0,3.52,0,5.359a4.882,4.882,0,0,1-2,0Zm-7.413-.241a4.361,4.361,0,0,1,4.413,4.656,4.511,4.511,0,0,1-4.415,4.839c-2.569.026-4.382-1.908-4.406-4.683A4.458,4.458,0,0,1,182.157,16.6Zm-47.689-3.934a5.737,5.737,0,0,1,1.919-.024v13.21h-1.919ZM109.352,16.76c.508,2.226,1.015,4.442,1.557,6.822,1.053-2.228,1.389-4.572,2.192-6.721,1.166-.414,1.751-.048,2.01,1.181a36.361,36.361,0,0,0,1.631,5.457c.576-2.233,1.154-4.466,1.736-6.716h1.885c-.48,1.571-.933,3.075-1.391,4.572-.372,1.225-.83,2.43-1.091,3.677-.192.91-.739.823-1.4.881-.8.072-.907-.4-1.055-.977-.48-1.807-.974-3.609-1.463-5.412l-.218.019c-.52,1.848-1.067,3.689-1.549,5.534-.177.686-.54.847-1.2.818-.595-.026-1.053,0-1.214-.784-.209-1.015-.578-2-.868-3-.508-1.694-.988-3.422-1.525-5.238a6.23,6.23,0,0,1,1.962-.108Zm-25.44-3.253a14.344,14.344,0,0,1,4.912-.214c4.056.529,6.015,3.554,5.111,7.765A5.76,5.76,0,0,1,89.318,25.7a15.659,15.659,0,0,1-5.406.094ZM99.085,60.638c-.624.019-.679-.39-.811-.821-.6-1.99-1.23-3.973-1.832-5.963-.122-.4-.206-.739-.755-.734-2.588.019-5.178,0-7.812,0-.691,2.247-1.389,4.411-2.01,6.6-.2.7-.5.963-1.235.917-1.031-.065-2.07-.017-3.264-.017.556-1.735,1.072-3.369,1.6-4.991,2.091-6.5,4.2-13.011,6.26-19.529.259-.813.595-1.172,1.487-1.092a22.4,22.4,0,0,0,3.118,0,.943.943,0,0,1,1.122.753c2.626,8.22,5.276,16.435,7.979,24.852C101.552,60.638,100.317,60.6,99.085,60.638Zm1.82-34.551c-2.552.031-4.384-1.906-4.413-4.666a4.466,4.466,0,0,1,4.415-4.813,4.356,4.356,0,0,1,4.4,4.659c0,2.8-1.816,4.8-4.4,4.825ZM122.49,57.209a7.406,7.406,0,0,1-11.9,1.4v9.471h-3.938c-.127-.481-.377-24.825-.254-25.882h3.427a19.851,19.851,0,0,1,.326,2.782c.3-.344.544-.621.789-.893A7.251,7.251,0,0,1,122.325,45a11.525,11.525,0,0,1,.168,12.212Zm2.5-36.515c-.019,1.684,0,3.357,0,5.053a4.654,4.654,0,0,1-1.979.1v-8.98c.432-.267.988-.053,1.513-.094.381.272.082.7.319,1.02.067-.014.213,0,.276-.072a3.236,3.236,0,0,1,3.7-.946,3.073,3.073,0,0,1,1.967,3.032c.1,1.983.026,3.975.026,6.032h-1.981v-5.2c-.014-1.554-.612-2.322-1.784-2.346C125.75,18.266,125.006,19.118,124.99,20.694ZM143.97,56.749a7.516,7.516,0,0,1-12.145,1.968v9.346H127.7c-.127-8.614.12-17.212-.168-25.86H131.1c.074.9.144,1.757.24,2.851a7.412,7.412,0,0,1,5.593-3.244,6.829,6.829,0,0,1,7.121,4.057,11.919,11.919,0,0,1-.086,10.883Zm-.24-30.656c-2.554,0-4.358-1.956-4.353-4.723a4.467,4.467,0,0,1,4.463-4.767,4.341,4.341,0,0,1,4.36,4.709,4.523,4.523,0,0,1-4.468,4.784Zm6.929-1.759a2.931,2.931,0,0,1,1.05-3.311,7.345,7.345,0,0,1,3.96-1.064c.029-2.014-1-2.377-4.077-1.468-.612-.926-.307-1.415.72-1.658a8.06,8.06,0,0,1,1.883-.267c2.317,0,3.468,1.085,3.576,3.4.043.962.019,1.925.024,2.887s0,1.908,0,3.025c-.693-.043-1.624.5-1.878-.9a3.5,3.5,0,0,1-2.638,1.1,2.762,2.762,0,0,1-2.617-1.74Zm15.086,35.1c-3.857,2.3-7.931,2.007-11.978.354-.48-.195-.688-.481-.508-1.018.285-.869.525-1.754.8-2.69a11.32,11.32,0,0,0,7.068,1.463c1.967-.284,3.252-1.326,3.583-2.887a3.987,3.987,0,0,0-2.144-4.42,21.893,21.893,0,0,0-3.175-1.388,14.3,14.3,0,0,1-3.118-1.747,6.544,6.544,0,0,1,.449-11.013c2.94-1.865,7.965-1.939,11.21-.12l-1.007,3.121a21.418,21.418,0,0,0-3.454-.963,7.075,7.075,0,0,0-3.878.38,3.15,3.15,0,0,0-.907,5.327,9.3,9.3,0,0,0,2.773,1.636,18.29,18.29,0,0,1,5.113,2.815A6.987,6.987,0,0,1,165.745,59.434Zm3.5-33.613a3.646,3.646,0,0,1-1.439.075c-.432-.26-.082-.8-.468-1.095a3.531,3.531,0,0,1-4.005,1.076c-1.624-.534-2.262-1.925-2.53-3.5a5.773,5.773,0,0,1,.319-3.066c1.034-2.721,3.468-3.5,6.178-1.764V12.669h1.947ZM182.4,45.211h-4.4c0,3.448-.091,6.764.036,10.07.07,1.8,1.134,2.5,2.926,2.353.355-.029.72-.077,1.115-.123a14.882,14.882,0,0,1,.146,3.027,9.3,9.3,0,0,1-4.751.289,4.335,4.335,0,0,1-3.358-3.932,58.576,58.576,0,0,1-.218-7.919c-.024-1.2,0-2.394,0-3.7h-2.564a15.436,15.436,0,0,1-.1-2.979c.82-.325,1.679-.036,2.547-.2a32.482,32.482,0,0,0,.175-3.306l3.96-1.251v4.6H182.4Zm13.1,15.667c-6.063,1.126-10.913-3.155-10.762-9.5.12-5.072,3.02-8.785,7.435-9.531a8.794,8.794,0,0,1,10.5,7.941c.065.556.1,1.114.125,1.379C202.68,56.393,199.826,60.079,195.507,60.878ZM205.5,18.2c-.281-.38-.05-.825-.134-1.2.384-.457.914-.077,1.317-.416.019-.426.043-.9.072-1.463l1.8-.546c.355.683,0,1.4.266,2.06.626.274,1.324,0,1.979.168.285.426.082.866.151,1.292-.7.411-1.456,0-2.235.327,0,1.311-.019,2.664,0,4.016.031,1.627.271,1.855,2.019,1.9.031.5.058.929.084,1.338-2.317,1.013-3.953.022-4.077-2.438-.043-.8-.017-1.6-.019-2.406s0-1.593,0-2.346C206.328,18.121,205.877,18.413,205.5,18.2Zm10.483,27.393a1.2,1.2,0,0,1-.331.087c-3.389-.1-5.113,1.514-5.161,4.938-.043,3,0,6.016,0,9.007v.917h-4.144V42.222h3.442c.046,1.011.091,1.992.134,2.972,1.4-2.324,3.166-3.742,6.061-3.311Zm-.24-24.515v4.442a1.252,1.252,0,0,1-.091.3,5.249,5.249,0,0,1-1.88.046V12.676a5.422,5.422,0,0,1,1.964-.014v5.294c1.223-1.384,2.511-1.737,3.933-1.143,1.5.626,1.854,2.019,1.9,3.465.062,1.831.014,3.665.014,5.558h-2V21.1c0-1.973-.542-2.8-1.825-2.813-1.37-.012-2.012.876-2.019,2.791Zm18.468,31.281H222.177a4.719,4.719,0,0,0,4.355,5.4,14.746,14.746,0,0,0,6.089-.7,16.042,16.042,0,0,1,.674,2.823c-3.4,1.167-6.795,1.757-10.184.356-3.516-1.444-4.83-4.452-5.051-8.047a11.472,11.472,0,0,1,1.024-5.508,8.183,8.183,0,0,1,10.39-4.459c3.154,1.121,4.331,3.7,4.763,6.762a11.524,11.524,0,0,1-.029,3.366Z" fill="#010101"/>
  <path id="Path_1244" data-name="Path 1244" d="M141.2,103.827c-8.082,5.324-6.515,15.992,1.22,19.494-1.586,4.267-3.528,8.3-7.088,11.338a6.24,6.24,0,0,1-6.753,1,16.146,16.146,0,0,0-3.872-1.251,10.775,10.775,0,0,0-5.622.886c-4.065,1.733-6.19,1.355-9.03-2.036-5.319-6.354-8.291-13.629-7.379-22.028.592-5.451,3.218-9.694,8.741-11.552a10.218,10.218,0,0,1,6.837.173c.789.282,1.579.58,2.346.919a5.141,5.141,0,0,0,4.192.034,21.988,21.988,0,0,1,4.888-1.62C134.4,98.451,138.118,100.169,141.2,103.827Z" transform="translate(-77.841 -75.196)" fill="#fdfdfd"/>
  <path id="Path_1245" data-name="Path 1245" d="M548.322,177.752a6.851,6.851,0,0,0-7.145-4.058,7.426,7.426,0,0,0-5.612,3.244c-.089-1.1-.159-1.947-.241-2.852H531.75c.289,8.65.041,17.249.168,25.864h4.137V190.6a7.555,7.555,0,0,0,12.187-1.969A11.845,11.845,0,0,0,548.322,177.752Zm-4.541,10.438a4.326,4.326,0,0,1-4.7,1.336,4.031,4.031,0,0,1-2.931-3.6,16.268,16.268,0,0,1-.024-2.517,7.936,7.936,0,0,1,.45-3.892,4.293,4.293,0,0,1,7.22-1.081C545.887,180.873,545.875,185.783,543.781,188.189Z" transform="translate(-404.248 -131.887)" fill="#fdfdfd"/>
  <path id="Path_1246" data-name="Path 1246" d="M459.5,176.743a7.291,7.291,0,0,0-11.422-.917c-.241.272-.481.549-.792.893a19.8,19.8,0,0,0-.327-2.782h-3.432c-.123,1.057.128,25.4.255,25.886h3.954v-9.463a7.449,7.449,0,0,0,11.939-1.4A11.46,11.46,0,0,0,459.5,176.743Zm-3.61,10.83a4.383,4.383,0,0,1-4.837,1.858,3.857,3.857,0,0,1-3.148-3.514,13.232,13.232,0,0,1,.258-6.18,3.97,3.97,0,0,1,3.461-2.917,4.237,4.237,0,0,1,4.2,1.783,7.524,7.524,0,0,1,1.321,4.534,7.716,7.716,0,0,1-1.251,4.455Z" transform="translate(-337.153 -131.751)" fill="#fdfdfd"/>
  <path id="Path_1247" data-name="Path 1247" d="M352.861,146.279a.946.946,0,0,0-1.126-.753,22.553,22.553,0,0,1-3.129,0c-.9-.079-1.232.279-1.492,1.093-2.067,6.52-4.183,13.022-6.281,19.532-.527,1.627-1.044,3.256-1.6,4.991,1.2,0,2.241-.048,3.275.017.736.048,1.04-.221,1.239-.917.623-2.185,1.324-4.349,2.017-6.6H353.6c.551,0,.635.332.758.734.6,1.99,1.235,3.973,1.839,5.964.132.431.188.84.813.821,1.237-.041,2.476-.012,3.851-.012C358.151,162.719,355.5,154.5,352.861,146.279Zm-6.315,14.134c1.1-3.689,2.183-7.295,3.355-11.213,1.2,3.911,2.315,7.518,3.454,11.213Z" transform="translate(-257.895 -110.504)" fill="#fdfdfd"/>
  <path id="Path_1248" data-name="Path 1248" d="M639.583,165.354a11.39,11.39,0,0,0,7.092,1.463c1.973-.284,3.263-1.326,3.6-2.888a3.983,3.983,0,0,0-2.152-4.421,21.894,21.894,0,0,0-3.186-1.389,14.363,14.363,0,0,1-3.129-1.747,6.533,6.533,0,0,1,.45-11.015c2.951-1.865,7.992-1.94,11.249-.12l-1.011,3.136a21.544,21.544,0,0,0-3.466-.963,7.121,7.121,0,0,0-3.892.38,3.146,3.146,0,0,0-.91,5.328,9.339,9.339,0,0,0,2.782,1.637,18.37,18.37,0,0,1,5.131,2.816,6.977,6.977,0,0,1-.842,11.148c-3.87,2.3-7.959,2.007-12.019.354-.481-.195-.691-.481-.51-1.018C639.063,167.184,639.3,166.3,639.583,165.354Z" transform="translate(-485.552 -109.288)" fill="#fdfdfd"/>
  <path id="Path_1249" data-name="Path 1249" d="M788.281,181.417a8.819,8.819,0,0,0-10.531-7.942c-4.433.746-7.343,4.46-7.461,9.533-.152,6.346,4.715,10.628,10.8,9.5,4.332-.8,7.2-4.491,7.321-9.713C788.382,182.531,788.346,181.973,788.281,181.417Zm-5.372,6.219a4.257,4.257,0,0,1-7.372-.137,7.924,7.924,0,0,1-1.085-4.361,7.8,7.8,0,0,1,1.271-4.662,4.241,4.241,0,0,1,7.3.137,9.113,9.113,0,0,1-.111,9.023Z" transform="translate(-585.589 -131.625)" fill="#fdfdfd"/>
  <path id="Path_1250" data-name="Path 1250" d="M925.335,184.022a11.487,11.487,0,0,0,.029-3.357c-.433-3.059-1.615-5.641-4.78-6.763a8.221,8.221,0,0,0-10.426,4.46,11.443,11.443,0,0,0-1.028,5.492c.221,3.6,1.54,6.6,5.068,8.048,3.4,1.4,6.806.811,10.219-.356a16,16,0,0,0-.676-2.823,14.954,14.954,0,0,1-6.11.7,4.721,4.721,0,0,1-4.37-5.4Zm-12.161-2.934c0-2.727,2.041-4.938,4.426-4.871,2.438.067,3.932,1.911,3.868,4.871Z" transform="translate(-691.211 -131.673)" fill="#fdfdfd"/>
  <path id="Path_1251" data-name="Path 1251" d="M720.625,160.609h4.493v3.059h-4.411c0,3.449-.091,6.765.036,10.072.07,1.8,1.138,2.505,2.936,2.354.356-.029.722-.077,1.119-.123a14.832,14.832,0,0,1,.147,3.028,9.359,9.359,0,0,1-4.768.3,4.34,4.34,0,0,1-3.369-3.932,58.394,58.394,0,0,1-.219-7.92c-.024-1.2,0-2.395,0-3.7h-2.573a15.383,15.383,0,0,1-.1-2.979c.823-.325,1.685-.036,2.556-.2a32.371,32.371,0,0,0,.176-3.307L720.625,156Z" transform="translate(-542.702 -118.465)" fill="#fdfdfd"/>
  <path id="Path_1252" data-name="Path 1252" d="M863.948,177.129c1.4-2.325,3.177-3.742,6.082-3.312v3.709a1.2,1.2,0,0,1-.332.087c-3.4-.1-5.131,1.514-5.179,4.938-.043,3,0,6.017,0,9.008v.917H860.36V174.157h3.454C863.859,175.168,863.905,176.15,863.948,177.129Z" transform="translate(-654.04 -131.937)" fill="#fdfdfd"/>
  <path id="Path_1253" data-name="Path 1253" d="M354.8,54.866a14.44,14.44,0,0,0-4.929.214V67.373a15.764,15.764,0,0,0,5.425-.094,5.75,5.75,0,0,0,4.633-4.647C360.835,58.418,358.868,55.4,354.8,54.866Zm2.407,9.16c-1,1.557-2.758,2.137-5.429,1.733V56.493c1.993-.128,3.976-.339,5.386,1.468,1.093,1.405,1.064,4.469.046,6.065Z" transform="translate(-265.97 -41.574)" fill="#fdfdfd"/>
  <path id="Path_1254" data-name="Path 1254" d="M185.258,61.2c-.505-5.444,4.464-11.121,9.675-11.145C195.9,55.5,190.569,61.686,185.258,61.2Z" transform="translate(-140.805 -38.007)" fill="#fdfdfd"/>
  <path id="Path_1255" data-name="Path 1255" d="M454.138,72.286c-.522,1.848-1.071,3.689-1.555,5.535-.178.686-.542.847-1.2.818-.6-.026-1.057,0-1.218-.785-.209-1.016-.58-2-.871-3-.51-1.711-.992-3.439-1.531-5.256a6.279,6.279,0,0,1,1.969-.108c.51,2.226,1.018,4.443,1.562,6.823,1.056-2.229,1.393-4.573,2.2-6.722,1.17-.414,1.757-.048,2.017,1.182a36.275,36.275,0,0,0,1.637,5.458c.578-2.233,1.158-4.467,1.742-6.717h1.892c-.481,1.572-.936,3.076-1.4,4.573-.373,1.225-.833,2.431-1.1,3.677-.193.91-.741.823-1.4.881-.8.072-.91-.4-1.059-.977-.481-1.807-.977-3.61-1.468-5.413Z" transform="translate(-340.389 -52.725)" fill="#fdfdfd"/>
  <path id="Path_1256" data-name="Path 1256" d="M676.7,52.65v4.869c-2.719-1.735-5.162-.963-6.2,1.764a5.756,5.756,0,0,0-.32,3.078c.27,1.576.91,2.97,2.539,3.5a3.551,3.551,0,0,0,4.019-1.076c.387.3.036.835.469,1.1a3.668,3.668,0,0,0,1.444-.075V52.65Zm-2.212,11.766c-1.473-.036-2.493-1.511-2.337-3.437a4.273,4.273,0,0,1,.337-1.381,2.178,2.178,0,0,1,2.52-1.365c1.083.166,1.49.963,1.658,1.925a5.064,5.064,0,0,1,.055.794C676.724,63.338,675.939,64.455,674.491,64.416Z" transform="translate(-509.404 -39.982)" fill="#fdfdfd"/>
  <path id="Path_1257" data-name="Path 1257" d="M891.29,52.374a5.458,5.458,0,0,1,1.971-.014v5.295c1.227-1.384,2.52-1.738,3.947-1.143,1.507.626,1.86,2.019,1.911,3.466.063,1.831.014,3.665.014,5.559h-2.007V60.8c0-1.973-.544-2.8-1.831-2.813-1.367-.022-2.012.866-2.019,2.782v4.443a1.251,1.251,0,0,1-.091.3,5.284,5.284,0,0,1-1.887.046Z" transform="translate(-677.68 -39.698)" fill="#fdfdfd"/>
  <path id="Path_1258" data-name="Path 1258" d="M745.543,69a4.46,4.46,0,0,0-4.423,4.813c.024,2.772,1.858,4.7,4.421,4.674a4.525,4.525,0,0,0,4.431-4.84A4.366,4.366,0,0,0,745.543,69Zm-.067,8.009c-1.4,0-2.332-1.341-2.306-3.328.029-1.872,1-3.2,2.356-3.21s2.32,1.328,2.318,3.218C747.829,75.623,746.866,77,745.475,77.009Z" transform="translate(-563.392 -52.397)" fill="#fdfdfd"/>
  <path id="Path_1259" data-name="Path 1259" d="M585.616,69a4.463,4.463,0,0,0-4.476,4.77c0,2.787,1.8,4.724,4.368,4.724a4.519,4.519,0,0,0,4.484-4.784A4.35,4.35,0,0,0,585.616,69Zm2.207,5.376c-.176,1.579-1.189,2.679-2.407,2.63-1.189-.048-2.077-1.129-2.19-2.7a4.742,4.742,0,0,1,.219-2.12,2.221,2.221,0,0,1,2.2-1.685,2.147,2.147,0,0,1,2.01,1.762,9.884,9.884,0,0,1,.241,1.283C587.845,73.979,587.845,74.179,587.823,74.376Z" transform="translate(-441.777 -52.397)" fill="#fdfdfd"/>
  <path id="Path_1260" data-name="Path 1260" d="M406.75,69a4.485,4.485,0,0,0-4.431,4.813,4.377,4.377,0,0,0,4.428,4.667,4.5,4.5,0,0,0,4.416-4.83A4.359,4.359,0,0,0,406.75,69Zm-.14,8.007c-1.377-.041-2.284-1.42-2.236-3.4.046-1.848,1.083-3.182,2.436-3.129,1.316.048,2.226,1.34,2.231,3.172.007,2.019-.992,3.4-2.431,3.357Z" transform="translate(-305.839 -52.397)" fill="#fdfdfd"/>
  <path id="Path_1261" data-name="Path 1261" d="M792.42,78.019a4.914,4.914,0,0,1-2.01,0v-8.97a4.4,4.4,0,0,1,1.5-.067c.419.241.149.691.349,1.028.087-.031.212-.038.274-.1a3.264,3.264,0,0,1,3.728-.915c1.483.551,1.925,1.877,1.971,3.295.07,1.911.017,3.824.017,5.776h-1.988c0-1.848.031-3.644,0-5.437-.031-1.415-.744-2.166-1.925-2.12a1.941,1.941,0,0,0-1.925,2.166C792.4,74.418,792.42,76.18,792.42,78.019Z" transform="translate(-600.86 -52.206)" fill="#fdfdfd"/>
  <path id="Path_1262" data-name="Path 1262" d="M520.724,78.06h-1.988v-5.2c-.014-1.555-.614-2.322-1.791-2.346-1.287-.029-2.034.823-2.05,2.407-.019,1.685,0,3.357,0,5.054a4.685,4.685,0,0,1-1.985.1V69.085c.433-.267.992-.053,1.519-.094.383.272.082.7.32,1.02.067-.014.214,0,.277-.072a3.254,3.254,0,0,1,3.709-.946,3.073,3.073,0,0,1,1.973,3.032C520.8,74.009,520.724,76,520.724,78.06Z" transform="translate(-389.908 -52.22)" fill="#fdfdfd"/>
  <path id="Path_1263" data-name="Path 1263" d="M634.834,72.271c-.108-2.315-1.264-3.393-3.588-3.4a8.113,8.113,0,0,0-1.889.272c-1.03.241-1.336.722-.722,1.658,3.085-.91,4.118-.546,4.091,1.468a7.389,7.389,0,0,0-3.973,1.064,2.926,2.926,0,0,0-1.054,3.312,2.758,2.758,0,0,0,2.633,1.733,3.529,3.529,0,0,0,2.647-1.1c.255,1.4,1.189.862,1.885.9V75.154C634.863,74.2,634.873,73.233,634.834,72.271Zm-2.823,4.315a1.553,1.553,0,0,1-2.291-.419,1.621,1.621,0,0,1,.862-2.183,3.829,3.829,0,0,1,2.306-.255c.082,1.134.214,2.185-.876,2.854Z" transform="translate(-477.049 -52.299)" fill="#fdfdfd"/>
  <path id="Path_1264" data-name="Path 1264" d="M941.184,68.834a4.222,4.222,0,0,0-5.02,3.218c-.722,2.7.318,5.16,2.553,5.855a7.943,7.943,0,0,0,4.7-.188,2.152,2.152,0,0,0-.241-1.333c-3.879.517-5.016.026-5.261-2.322h5.865A4.075,4.075,0,0,0,941.184,68.834Zm-3.244,3.689c.284-1.685,1.032-2.407,2.337-2.313,1.134.082,1.668.763,1.757,2.313Z" transform="translate(-711.582 -52.188)" fill="#fdfdfd"/>
  <path id="Path_1265" data-name="Path 1265" d="M861.662,70.328c.031.5.058.929.084,1.338-2.325,1.013-3.966.022-4.091-2.438-.043-.8-.017-1.605-.019-2.407s0-1.593,0-2.346c-.392-.373-.845-.082-1.223-.3-.282-.38-.051-.825-.135-1.2.385-.457.917-.077,1.321-.416.019-.426.043-.9.072-1.463l1.8-.546c.356.683,0,1.4.267,2.06.628.274,1.328,0,1.985.168.286.426.082.866.152,1.292-.7.412-1.461,0-2.243.327,0,1.312-.019,2.664,0,4.017C859.667,70.044,859.907,70.285,861.662,70.328Z" transform="translate(-650.917 -45.981)" fill="#fdfdfd"/>
  <path id="Path_1266" data-name="Path 1266" d="M562.535,65.544H560.61V52.356a5.776,5.776,0,0,1,1.925-.024Z" transform="translate(-426.158 -39.687)" fill="#fdfdfd"/>
  <path id="Path_1267" data-name="Path 1267" d="M549.845,193.681a7.938,7.938,0,0,1,.45-3.892,4.3,4.3,0,0,1,7.22-1.081c2.075,2.433,2.063,7.331-.031,9.749a4.327,4.327,0,0,1-4.7,1.336,4.031,4.031,0,0,1-2.931-3.6A16.269,16.269,0,0,1,549.845,193.681Z" transform="translate(-417.951 -142.151)" fill="#010101"/>
  <path id="Path_1268" data-name="Path 1268" d="M470.311,193.575a7.733,7.733,0,0,1-1.251,4.435,4.383,4.383,0,0,1-4.837,1.858,3.857,3.857,0,0,1-3.148-3.514,13.232,13.232,0,0,1,.258-6.18,3.97,3.97,0,0,1,3.461-2.917,4.237,4.237,0,0,1,4.2,1.783A7.544,7.544,0,0,1,470.311,193.575Z" transform="translate(-350.323 -142.166)" fill="#010101"/>
  <path id="Path_1269" data-name="Path 1269" d="M369.63,172.043c1.1-3.689,2.183-7.295,3.355-11.213,1.2,3.911,2.315,7.518,3.453,11.213Z" transform="translate(-280.987 -122.131)" fill="#010101"/>
  <path id="Path_1270" data-name="Path 1270" d="M787.6,193.025a7.8,7.8,0,0,1,1.271-4.662,4.241,4.241,0,0,1,7.3.137,9.114,9.114,0,0,1-.111,9.023,4.257,4.257,0,0,1-7.372-.137A7.924,7.924,0,0,1,787.6,193.025Z" transform="translate(-598.728 -141.513)" fill="#010101"/>
  <path id="Path_1271" data-name="Path 1271" d="M934.3,190H926c0-2.727,2.041-4.938,4.426-4.871C932.873,185.193,934.368,187.036,934.3,190Z" transform="translate(-704.037 -140.579)" fill="#010101"/>
  <path id="Path_1272" data-name="Path 1272" d="M357.8,71.01V61.745c1.993-.128,3.976-.339,5.386,1.468,1.09,1.4,1.061,4.462.043,6.058C362.233,70.835,360.471,71.415,357.8,71.01Z" transform="translate(-271.993 -46.826)" fill="#010101"/>
  <path id="Path_1273" data-name="Path 1273" d="M683.154,78.46c0,2.375-.785,3.492-2.233,3.454s-2.489-1.511-2.337-3.437a4.275,4.275,0,0,1,.337-1.381,2.178,2.178,0,0,1,2.52-1.365c1.083.166,1.49.963,1.658,1.925A5.068,5.068,0,0,1,683.154,78.46Z" transform="translate(-515.832 -57.479)" fill="#010101"/>
  <path id="Path_1274" data-name="Path 1274" d="M754.319,78.328c0,1.925-.987,3.314-2.368,3.321s-2.332-1.341-2.3-3.328c.026-1.872,1-3.2,2.354-3.21S754.322,76.438,754.319,78.328Z" transform="translate(-569.864 -57.037)" fill="#010101"/>
  <path id="Path_1275" data-name="Path 1275" d="M594.347,78.26c-.029.443-.034.643-.055.84-.176,1.579-1.189,2.679-2.407,2.63-1.189-.048-2.077-1.129-2.19-2.7a4.749,4.749,0,0,1,.219-2.123,2.221,2.221,0,0,1,2.2-1.685,2.147,2.147,0,0,1,2.01,1.762A9.9,9.9,0,0,1,594.347,78.26Z" transform="translate(-448.245 -57.121)" fill="#010101"/>
  <path id="Path_1276" data-name="Path 1276" d="M415.521,78.325c0,2.024-.992,3.408-2.431,3.369-1.377-.041-2.284-1.42-2.236-3.4.046-1.848,1.083-3.182,2.436-3.129C414.606,75.2,415.516,76.494,415.521,78.325Z" transform="translate(-312.32 -57.078)" fill="#010101"/>
  <path id="Path_1277" data-name="Path 1277" d="M639.257,88.815c.082,1.136.214,2.188-.876,2.857a1.553,1.553,0,0,1-2.291-.419,1.621,1.621,0,0,1,.862-2.183,3.829,3.829,0,0,1,2.306-.255Z" transform="translate(-483.417 -67.388)" fill="#010101"/>
  <path id="Path_1278" data-name="Path 1278" d="M944.26,77.187c.284-1.685,1.032-2.407,2.337-2.313,1.134.082,1.668.763,1.757,2.313Z" transform="translate(-717.902 -56.852)" fill="#010101"/>
</svg>
