<svg xmlns="http://www.w3.org/2000/svg" width="68" height="49.866" viewBox="0 0 68 49.866">
  <g id="crown" transform="translate(-89.587 -0.043)">
    <path id="Path_621" data-name="Path 621" d="M108.18,5.344a1.131,1.131,0,0,0-1.606.739A9.433,9.433,0,0,0,109.045,15l.1.094a1.125,1.125,0,0,0,.8.332h9.067a1.13,1.13,0,0,0,.8-.331l.1-.1a9.435,9.435,0,0,0,2.468-8.914,1.134,1.134,0,0,0-1.606-.739L117.248,7.1l-1.76-3.519a1.18,1.18,0,0,0-2.028,0L111.7,7.1Zm5.041,3.786,1.252-2.505,1.253,2.505a1.132,1.132,0,0,0,1.521.507l3.133-1.566a7.17,7.17,0,0,1-1.851,5.085h-8.109a7.182,7.182,0,0,1-1.851-5.085L111.7,9.637A1.133,1.133,0,0,0,113.221,9.13Z" transform="translate(9.114 1.618)" fill="#0d0c22"/>
    <path id="Path_622" data-name="Path 622" d="M100.987,22.043h0a1.134,1.134,0,0,1,1.134,1.133h0a1.134,1.134,0,0,1-1.134,1.133h0a1.132,1.132,0,0,1-1.133-1.133h0A1.132,1.132,0,0,1,100.987,22.043Z" transform="translate(5.6 12)" fill="#0d0c22"/>
    <path id="Path_623" data-name="Path 623" d="M150.405,20.88a6.784,6.784,0,0,0-11.3-2.494,9.075,9.075,0,0,0-8.719-6.61,7.933,7.933,0,0,0-6.8,3.868,7.929,7.929,0,0,0-6.8-3.868,9.074,9.074,0,0,0-8.718,6.61,6.784,6.784,0,0,0-11.3,2.494,7.944,7.944,0,0,0-7.183,7.9v5.667c0,5.952,17.105,9.066,34,9.066s34-3.114,34-9.066V28.776A7.942,7.942,0,0,0,150.405,20.88Zm-20.018-6.837a6.806,6.806,0,0,1,6.8,6.8A14.027,14.027,0,0,1,129.8,33.21l-.091.049a14.747,14.747,0,0,0,.677-4.483c0-5.086-2.363-9.185-5.568-10.032a5.664,5.664,0,0,1,5.568-4.7ZM119.054,28.776c0-4.3,2.077-7.933,4.533-7.933s4.534,3.633,4.534,7.933c0,.24-.006.478-.02.712a8.57,8.57,0,0,1-4.511,7.066l0,0h0a8.572,8.572,0,0,1-4.514-7.067c-.012-.235-.019-.473-.019-.712Zm-2.267-14.733a5.664,5.664,0,0,1,5.57,4.7c-3.205.847-5.57,4.945-5.57,10.032a14.794,14.794,0,0,0,.677,4.483l-.09-.049a14.029,14.029,0,0,1-7.387-12.367A6.807,6.807,0,0,1,116.787,14.043ZM91.854,28.776a5.676,5.676,0,0,1,4.539-5.553,6.809,6.809,0,0,0,5.454,6.553,1.128,1.128,0,0,0,1.34-1.114h0a1.143,1.143,0,0,0-.924-1.114,4.539,4.539,0,0,1-3.6-4.762,4.616,4.616,0,0,1,9.214.323,16.294,16.294,0,0,0,8.421,12.1l2.646,1.426c-16.9-.561-27.092-4.114-27.092-6.723Zm63.467,5.667c0,2.839-12.073,6.8-31.734,6.8s-31.733-3.961-31.733-6.8V33.4c5.194,3.674,18.528,5.576,31.733,5.576s26.54-1.9,31.734-5.576Zm0-4.534c0,2.609-10.194,6.162-27.093,6.723l2.646-1.426a16.29,16.29,0,0,0,8.421-12.1,4.616,4.616,0,0,1,9.214-.323,4.538,4.538,0,0,1-3.6,4.762,1.145,1.145,0,0,0-.926,1.114h0a1.129,1.129,0,0,0,1.341,1.114,6.81,6.81,0,0,0,5.454-6.553,5.676,5.676,0,0,1,4.539,5.553Z" transform="translate(0 6.4)" fill="#0d0c22"/>
    <path id="Path_624" data-name="Path 624" d="M122.987,22.043h0a1.134,1.134,0,0,1,1.134,1.133h0a1.134,1.134,0,0,1-1.134,1.133h0a1.132,1.132,0,0,1-1.133-1.133h0A1.132,1.132,0,0,1,122.987,22.043Z" transform="translate(17.6 12)" fill="#0d0c22"/>
    <path id="Path_625" data-name="Path 625" d="M119.321,7.376h0a1.132,1.132,0,0,1,1.133,1.133h0a1.134,1.134,0,0,1-1.133,1.134h0a1.135,1.135,0,0,1-1.134-1.134h0A1.134,1.134,0,0,1,119.321,7.376Z" transform="translate(15.6 4)" fill="#0d0c22"/>
    <path id="Path_626" data-name="Path 626" d="M104.654,7.376h0a1.132,1.132,0,0,1,1.133,1.133h0a1.134,1.134,0,0,1-1.133,1.134h0a1.134,1.134,0,0,1-1.133-1.134h0A1.132,1.132,0,0,1,104.654,7.376Z" transform="translate(7.6 4)" fill="#0d0c22"/>
    <path id="Path_627" data-name="Path 627" d="M111.987.043h0a1.134,1.134,0,0,1,1.134,1.133h0a1.134,1.134,0,0,1-1.134,1.133h0a1.132,1.132,0,0,1-1.133-1.133h0A1.132,1.132,0,0,1,111.987.043Z" transform="translate(11.6 0)" fill="#0d0c22"/>
  </g>
</svg>
