<svg xmlns="http://www.w3.org/2000/svg" xmlns:xlink="http://www.w3.org/1999/xlink" width="221" height="74.703" viewBox="0 0 221 74.703">
  <defs>
    <linearGradient id="linear-gradient" x1="0.616" y1="-0.247" x2="0.243" y2="3.609" gradientUnits="objectBoundingBox">
      <stop offset="0" stop-color="#a709a3"/>
      <stop offset="1" stop-color="#4d0c78"/>
    </linearGradient>
    <linearGradient id="linear-gradient-3" x1="1" y1="0.5" x2="0" y2="0.5" gradientUnits="objectBoundingBox">
      <stop offset="0" stop-color="#be09b9"/>
      <stop offset="1" stop-color="#7123a1"/>
    </linearGradient>
  </defs>
  <g id="Apple_app" data-name="Apple app" transform="translate(79 104)">
    <rect id="Rectangle_65" data-name="Rectangle 65" width="221" height="74.703" rx="10" transform="translate(-79 -104)" fill="#fff"/>
    <g id="Group_15346" data-name="Group 15346" transform="translate(-79.388 -104)">
      <g id="_001-apple" data-name="001-apple" transform="translate(20.389 17.091)">
        <g id="Group_127" data-name="Group 127" transform="translate(0)">
          <path id="Path_244" data-name="Path 244" d="M33.979.809,33.937,0l-.806.087a9.872,9.872,0,0,0-8.4,9.651l-.054.871.871-.059C25.639,10.544,34.458,9.841,33.979.809Zm-1.52.972a7.159,7.159,0,0,1-6.1,7.1A8.106,8.106,0,0,1,32.459,1.781Z" transform="translate(-10.017)" fill="url(#linear-gradient)"/>
          <path id="Path_245" data-name="Path 245" d="M37.033,31.868l-.49-.159a7.091,7.091,0,0,1-.908-13.169l.746-.36-.416-.716a9.031,9.031,0,0,0-5.357-3.925c-2.788-.713-5.922-.082-9.32,1.877-1.438-.873-6.216-3.389-10.017-.867-.744.411-8.631,5.136-4.526,17.884.12.285,2.983,6.991,6.37,9.5a4.635,4.635,0,0,0,5.921.143c.463-.191,3.558-1.382,5.522.013a6.245,6.245,0,0,0,3.328,1.059,3.991,3.991,0,0,0,2.96-1.244,23.829,23.829,0,0,0,6.188-9.12l.058-.156Zm-7.213,8.9-.059.056c-1.682,1.767-4.233.077-4.327.014a5.532,5.532,0,0,0-3.256-.946,10.361,10.361,0,0,0-3.83.816l-.125.071c-2.316,1.616-3.9.194-4.07.032l-.091-.077C11,38.5,8.185,31.9,8.181,31.9,4.339,19.958,11.7,16.051,12.012,15.893l.084-.05c3.565-2.393,8.689,1.071,8.74,1.105l.409.281.423-.255c3.191-1.929,6.071-2.585,8.559-1.948a7.556,7.556,0,0,1,3.951,2.564A8.619,8.619,0,0,0,35.345,32.9,22.726,22.726,0,0,1,29.82,40.765Z" transform="translate(-5.567 -3.087)" fill="url(#linear-gradient)"/>
        </g>
      </g>
      <path id="Intersection_5" data-name="Intersection 5" d="M39.258,45.772V23.956h2.457v2.727a6.25,6.25,0,0,1,5.535-2.97c3.969,0,7.02,2.97,7.02,7.587,0,4.59-3.051,7.695-7.02,7.695a6.4,6.4,0,0,1-5.535-2.97v9.747Zm2.457-14.445c0,3.483,2.349,5.508,5.022,5.508,2.727,0,5.022-2.052,5.022-5.535s-2.3-5.454-5.022-5.454C44.064,25.846,41.715,27.9,41.715,31.327ZM20.2,45.772V23.956h2.457v2.727a6.25,6.25,0,0,1,5.535-2.97c3.969,0,7.02,2.97,7.02,7.587,0,4.59-3.051,7.695-7.02,7.695a6.4,6.4,0,0,1-5.535-2.97v9.747Zm2.457-14.445c0,3.483,2.349,5.508,5.022,5.508,2.727,0,5.022-2.052,5.022-5.535s-2.3-5.454-5.022-5.454C25,25.846,22.653,27.9,22.653,31.327Zm99.036,0c0-4.671,3-7.614,7.317-7.614a6.782,6.782,0,0,1,7.1,7.074,13.319,13.319,0,0,1-.081,1.485H124.2a4.651,4.651,0,0,0,4.806,4.644,4.066,4.066,0,0,0,4.158-2.727h2.646a6.653,6.653,0,0,1-6.8,4.806C124.794,39,121.689,36.025,121.689,31.327Zm2.538-1.053h9.342a4.342,4.342,0,0,0-4.671-4.482A4.582,4.582,0,0,0,124.227,30.274ZM92.718,31.327a7.48,7.48,0,1,1,14.958,0A7.336,7.336,0,0,1,100.089,39C95.9,39,92.718,36.025,92.718,31.327Zm2.511,0c0,3.753,2.295,5.508,4.86,5.508s5.076-1.755,5.076-5.508c0-3.726-2.457-5.481-4.995-5.481C97.578,25.846,95.229,27.6,95.229,31.327ZM65.8,33.73h2.619c.162,1.566,1.269,3.132,3.888,3.132,2.376,0,3.78-1.35,3.78-3.132,0-5.076-10.179-1.836-10.179-8.829,0-3.105,2.511-5.211,6.237-5.211,3.591,0,5.94,1.971,6.237,4.833h-2.7c-.162-1.269-1.35-2.7-3.645-2.727-2.025-.054-3.618,1-3.618,3.024,0,4.86,10.152,1.836,10.152,8.8,0,2.673-2.187,5.319-6.264,5.319C68.526,38.941,65.853,36.835,65.8,33.73Zm45.927,5.022v-14.8h2.457v2.4a4.983,4.983,0,0,1,4.779-2.673v2.538h-.648c-2.349,0-4.131,1.053-4.131,4.482v8.046Zm-24.084,0c-2.619,0-4.1-1.08-4.1-4.05V25.981H81.621V23.956h1.917V20.23H86v3.726h3.861v2.025H86V34.7c0,1.458.54,1.971,2.052,1.971h1.809v2.079Zm-73.818,0-1.512-4.185H4.1L2.592,38.752H0L6.8,20.041H9.639l6.777,18.711ZM4.806,32.569h6.8l-3.4-9.5ZM68.082,6.99a3.872,3.872,0,0,1,3.929-4.2,3.561,3.561,0,0,1,3.226,1.89V0h1.049V11.1H75.237V9.27A3.416,3.416,0,0,1,72,11.22,3.9,3.9,0,0,1,68.082,6.99Zm1.065,0a3.056,3.056,0,1,0,6.09.015,3.052,3.052,0,0,0-3.046-3.3A2.99,2.99,0,0,0,69.147,6.99Zm-11.64,0a3.869,3.869,0,0,1,3.915-4.2,3.419,3.419,0,0,1,3.24,1.921v-1.8h1.049V11.1H64.662V9.285a3.46,3.46,0,0,1-3.255,1.935A3.892,3.892,0,0,1,57.507,6.99Zm1.065,0a3.056,3.056,0,1,0,6.09.015,3.052,3.052,0,0,0-3.046-3.3A2.99,2.99,0,0,0,58.572,6.99Zm-11.145.015a4.1,4.1,0,1,1,8.19,0,3.993,3.993,0,0,1-4.126,4.215A3.946,3.946,0,0,1,47.427,7.006Zm1.065,0a2.967,2.967,0,0,0,3,3.3,3.007,3.007,0,0,0,3.046-3.3,3.034,3.034,0,1,0-6.045,0Zm-37.65,0a3.97,3.97,0,0,1,4.1-4.216,3.962,3.962,0,0,1,4.1,4.216,3.993,3.993,0,0,1-4.126,4.215A3.946,3.946,0,0,1,10.842,7.006Zm1.065,0a2.967,2.967,0,0,0,3,3.3,3.007,3.007,0,0,0,3.046-3.3,3.034,3.034,0,1,0-6.045,0ZM83.217,5.85a5.193,5.193,0,1,1,10.381,0,5.193,5.193,0,1,1-10.381,0Zm1.08,0c0,2.745,1.786,4.441,4.11,4.441s4.11-1.7,4.11-4.441-1.786-4.424-4.11-4.424S84.3,3.105,84.3,5.85ZM102.1,11.1V6.421c0-1.815-.99-2.745-2.49-2.745-1.53,0-2.595.959-2.595,2.955V11.1h-1.05V2.911h1.05V4.306a2.991,2.991,0,0,1,2.79-1.545,3.179,3.179,0,0,1,3.33,3.54v4.8Zm-58.081,0V0h1.05V11.1Zm-3.81,0V6.421c0-1.815-.99-2.745-2.49-2.745-1.53,0-2.595.959-2.595,2.955V11.1h-1.05V2.911h1.05V4.306a2.991,2.991,0,0,1,2.79-1.545,3.178,3.178,0,0,1,3.33,3.54v4.8Zm-11.625,0L26.322,4.23,24.057,11.1H22.992l-2.565-8.19h1.065l2.04,7.124,2.3-7.124h1.049l2.265,7.14,2.025-7.14H32.2L29.637,11.1ZM.282,11.1V.616H3.387c3.5,0,5.55,1.98,5.55,5.265,0,3.254-2.055,5.22-5.55,5.22Zm1.05-.87H3.387c2.97,0,4.486-1.65,4.486-4.35,0-2.715-1.516-4.4-4.486-4.4H1.332Z" transform="translate(64.893 15.266)" fill="url(#linear-gradient-3)"/>
    </g>
  </g>
</svg>
