<svg xmlns="http://www.w3.org/2000/svg" width="68.004" height="65.554" viewBox="0 0 68.004 65.554">
  <g id="makeup" transform="translate(0 -0.5)">
    <path id="Path_988" data-name="Path 988" d="M232.513,237.264h1.622a1,1,0,0,0,0-1.992h-1.381v-2.416a1,1,0,0,0-1.992,0v2.665A1.75,1.75,0,0,0,232.513,237.264Zm0,0" transform="translate(-200.111 -200.63)" fill="#0d0c22"/>
    <path id="Path_989" data-name="Path 989" d="M165.815,214.338a1,1,0,0,0-1.409,0,3.385,3.385,0,0,1-4.76,0,1,1,0,0,0-1.4,1.413,5.382,5.382,0,0,0,7.569,0A1,1,0,0,0,165.815,214.338Zm0,0" transform="translate(-136.969 -185.18)" fill="#0d0c22"/>
    <path id="Path_990" data-name="Path 990" d="M279.139,217.3a5.353,5.353,0,0,0,3.785-1.555,1,1,0,0,0-1.4-1.413,3.384,3.384,0,0,1-4.761,0,1,1,0,1,0-1.4,1.413A5.351,5.351,0,0,0,279.139,217.3Zm0,0" transform="translate(-238.526 -185.18)" fill="#0d0c22"/>
    <path id="Path_991" data-name="Path 991" d="M205.588,287.114a1,1,0,0,0,0,1.409,7.417,7.417,0,0,0,5.247,2.154,7.5,7.5,0,0,0,5.3-2.181,1,1,0,0,0-1.4-1.413,5.5,5.5,0,0,1-7.737.028,1,1,0,0,0-1.409,0Zm0,0" transform="translate(-178.03 -248.266)" fill="#0d0c22"/>
    <path id="Path_992" data-name="Path 992" d="M409.689,130.768a3.8,3.8,0,0,1,2.776,2.775,1.383,1.383,0,0,0,2.572,0,3.8,3.8,0,0,1,2.776-2.776,1.384,1.384,0,0,0,0-2.572,3.8,3.8,0,0,1-2.776-2.777,1.384,1.384,0,0,0-2.571,0,3.8,3.8,0,0,1-2.776,2.776,1.384,1.384,0,0,0,0,2.572Zm4.062-3.376a4.806,4.806,0,0,0,2.09,2.09,4.805,4.805,0,0,0-2.09,2.09,4.807,4.807,0,0,0-2.09-2.09A4.8,4.8,0,0,0,413.751,127.392Zm0,0" transform="translate(-354.517 -107.57)" fill="#0d0c22"/>
    <path id="Path_993" data-name="Path 993" d="M25.744,131.069a3.8,3.8,0,0,1,2.776,2.776,1.384,1.384,0,0,0,2.572,0,3.8,3.8,0,0,1,2.776-2.777,1.383,1.383,0,0,0,0-2.571,3.8,3.8,0,0,1-2.776-2.777,1.383,1.383,0,0,0-2.571,0,3.8,3.8,0,0,1-2.777,2.777,1.384,1.384,0,0,0,0,2.571Zm4.062-3.376a4.807,4.807,0,0,0,2.09,2.09,4.807,4.807,0,0,0-2.09,2.09,4.807,4.807,0,0,0-2.09-2.09A4.807,4.807,0,0,0,29.806,127.693Zm0,0" transform="translate(-21.568 -107.831)" fill="#0d0c22"/>
    <path id="Path_994" data-name="Path 994" d="M74.194,22.041a2.911,2.911,0,0,1,2.145,2.145,1.31,1.31,0,0,0,2.435,0,2.913,2.913,0,0,1,2.146-2.146,1.31,1.31,0,0,0,0-2.435,2.913,2.913,0,0,1-2.145-2.145,1.31,1.31,0,0,0-2.435,0,2.914,2.914,0,0,1-2.147,2.146,1.31,1.31,0,0,0,0,2.435Zm3.363-2.535a3.881,3.881,0,0,0,1.317,1.317,3.884,3.884,0,0,0-1.317,1.316,3.873,3.873,0,0,0-1.316-1.316A3.875,3.875,0,0,0,77.557,19.506Zm0,0" transform="translate(-63.622 -13.99)" fill="#0d0c22"/>
    <path id="Path_995" data-name="Path 995" d="M67.5,58.3l-.65-.645a1,1,0,1,0-1.4,1.413l.455.452-4.462,4.436L56.956,59.5a1,1,0,0,0-.963-.255,5.378,5.378,0,0,1-1.411.189,5.274,5.274,0,0,1-3.743-1.54l-9.554-9.5a.393.393,0,0,1,0-.56.419.419,0,0,1,.58,0l5.415,5.383a1,1,0,0,0,1.4,0l.811-.807A1,1,0,0,0,49.5,51l-7.219-7.175a.393.393,0,0,1,0-.561.418.418,0,0,1,.581,0l7.22,7.175a1,1,0,0,0,1.4,0l.812-.807a1,1,0,0,0,0-1.413L45.074,41.04a.393.393,0,0,1,0-.56.419.419,0,0,1,.581,0l7.219,7.176a1,1,0,0,0,1.4,0l.812-.807a1,1,0,0,0,0-1.413l-5.415-5.382a.393.393,0,0,1,0-.56.419.419,0,0,1,.581,0L57.2,46.4a1,1,0,0,0,1.7-.707V43.2a.77.77,0,0,1,1.539,0v6.25a.993.993,0,0,0,.148.522,5.247,5.247,0,0,1,.584,4.133,1,1,0,0,0,.258.971l.7.691a1,1,0,0,0,1.4-1.413l-.3-.3a7.252,7.252,0,0,0-.795-4.874V43.2a2.762,2.762,0,0,0-5.524,0v.1l-3.178-3.16a6.873,6.873,0,0,0-.763-4.372,3.632,3.632,0,0,0,.528-1.888V30.616a3.685,3.685,0,0,0-2.018-3.273V23.456a14.824,14.824,0,0,0-5.537-11.932,16.923,16.923,0,0,0-3-1.929,10.164,10.164,0,0,0-20.214,0,16.9,16.9,0,0,0-3,1.929,14.824,14.824,0,0,0-5.538,11.932v3.887a3.686,3.686,0,0,0-2.017,3.273v3.258a3.655,3.655,0,0,0,1.147,2.654l-.349,5.295a1.645,1.645,0,0,0-.875.455L10.768,43.6a1.657,1.657,0,0,0-.1,2.236L.639,56.863a2.238,2.238,0,0,0,1.606,3.8,2.234,2.234,0,0,0,1.565-.633l11.1-9.973a1.664,1.664,0,0,0,2.248-.089l1.332-1.324a1.648,1.648,0,0,0,.46-.872l5.76-.376a1.738,1.738,0,0,0,.475-.1,14.066,14.066,0,0,0,2.687.929v1.851H21.235a10.788,10.788,0,0,0-10.8,10.747v3.539a1.693,1.693,0,0,0,1.691,1.69H53.548a1.693,1.693,0,0,0,1.691-1.69V61.395c.235-.021.47-.052.7-.1l4.281,4.255a1.724,1.724,0,0,0,2.429,0L67.5,60.736a1.72,1.72,0,0,0,0-2.44ZM37.8,48.228a13.832,13.832,0,0,0,1.4-.406,2.49,2.49,0,0,0-.02.293,2.374,2.374,0,0,0,.705,1.693l.272.27H37.8ZM51.661,38.08a2.4,2.4,0,0,0-4.087,1.5l-.516-.512a2.4,2.4,0,0,0-4.094,1.693,2.445,2.445,0,0,0,.038.428,2.427,2.427,0,0,0-.436-.039q-.114,0-.226.011a4.876,4.876,0,0,1-.468-2.09,4.975,4.975,0,0,1,9.857-.921ZM51.5,33.873c0,.015,0,.03,0,.045a6.97,6.97,0,0,0-2.9-1.557V28.92h1.164a1.721,1.721,0,0,1,1.741,1.7ZM32.835,2.492a8.169,8.169,0,0,1,7.927,6.163,24.355,24.355,0,0,0-15.854,0,8.17,8.17,0,0,1,7.927-6.163ZM14.169,30.615a1.721,1.721,0,0,1,1.741-1.7h1.164V34.2a11,11,0,0,0-2.412.33,1.733,1.733,0,0,0-.3.107,1.644,1.644,0,0,1-.191-.768ZM2.462,58.563l-.036.035a.257.257,0,0,1-.362,0,.24.24,0,0,1,0-.343c.012-.011.023-.024.035-.036l9.975-10.97,1.416,1.407ZM15.985,48.327l-3.572-3.551.861-.856,3.572,3.551Zm8.409-2.9-6.366.415-.1-.1L21.5,43.629a1,1,0,0,0-1.013-1.715l-4,2.361,2.369-3.962a1,1,0,1,0-1.71-1.023L15.02,42.847l-.108-.108.417-6.315a8.927,8.927,0,0,1,2-.231,7.329,7.329,0,0,1,5.225,2.063,7.548,7.548,0,0,1,1.841,7.167Zm-.436-8.58a9.1,9.1,0,0,0-4.891-2.492V25.112h3.911a1,1,0,0,0,0-1.992H18.891a1.816,1.816,0,0,0-1.816,1.811v2h-.888V23.455a12.893,12.893,0,0,1,4.8-10.383,18.816,18.816,0,0,1,11.85-3.751,18.815,18.815,0,0,1,11.85,3.751,12.894,12.894,0,0,1,4.8,10.383v3.472H48.6v-2a1.816,1.816,0,0,0-1.816-1.811H42.506a5.3,5.3,0,0,1-4.444-2.458,1.818,1.818,0,0,0-3.077,0A5.294,5.294,0,0,1,30.54,23.12H27.627a1,1,0,1,0,0,1.992H30.54a7.306,7.306,0,0,0,5.983-3.165,7.307,7.307,0,0,0,5.983,3.165h4.1v7.033a6.954,6.954,0,0,0-6.722,6.924,6.853,6.853,0,0,0,.732,3.086,2.373,2.373,0,0,0,.034,2.815,12.061,12.061,0,0,1-6.092,1.642h-3.44a12.084,12.084,0,0,1-4.732-.96,9.487,9.487,0,0,0-2.426-8.81ZM27.925,52.07a1.938,1.938,0,0,0,1.939-1.934V48.549c.412.036.83.056,1.251.056h3.44q.632,0,1.25-.056v1.588a1.939,1.939,0,0,0,1.94,1.934h.236l-5.147,7.88-5.147-7.88Zm-15.5,11.991V60.825a8.793,8.793,0,0,1,8.812-8.754h.107l7.832,11.991Zm24.073,0,2.227-3.41a1,1,0,0,0-1.668-1.09l-2.274,3.481a2.322,2.322,0,0,1-1.551,1.018h-.791a2.322,2.322,0,0,1-1.55-1.018L23.722,52.07h1.587L32,62.317a1,1,0,0,0,1.668,0L40.361,52.07h1.587L39.57,55.71a1,1,0,1,0,1.668,1.09l2.234-3.42,5.961,5.926a7.239,7.239,0,0,0,3.813,2v2.759Zm0,0" fill="#0d0c22"/>
  </g>
</svg>
