<svg xmlns="http://www.w3.org/2000/svg" width="64.432" height="58.872" viewBox="0 0 64.432 58.872">
  <g id="camera" transform="matrix(0.966, -0.259, 0.259, 0.966, -268.874, 81.586)">
    <path id="Path_676" data-name="Path 676" d="M301.252,37.874a12.156,12.156,0,0,1-1.711.145h-.029a1.6,1.6,0,0,1-1.668-1.552,1.616,1.616,0,0,1,1.653-1.653,7.874,7.874,0,0,0,7.54-5.162,7.659,7.659,0,0,0-1.523-8.526,7.717,7.717,0,0,0-5.844-2.755,9.033,9.033,0,0,0-2.552.392,7.8,7.8,0,0,0-5.771,6.6,7.815,7.815,0,0,0,2.9,7.584,1.668,1.668,0,0,1,.682,1.8,1.483,1.483,0,0,1-1.247,1.16,1.521,1.521,0,0,1-1.392-.391,11.151,11.151,0,0,1-4.22-9.8,11.265,11.265,0,0,1,8.773-10.223c.1-.014.2-.043.319-.058a1.627,1.627,0,0,1,.3-.058l.217-.044.087-.014.3-.044a2.372,2.372,0,0,1,.319-.029l.3-.029c.2-.015.42-.015.624-.015h.116c.188,0,.362,0,.536.015l.3.014a1.981,1.981,0,0,1,.276.029c.275.014.536.058.826.1l.522.1c.087.014.174.043.261.058.174.043.348.1.449.116l.319.116a2.5,2.5,0,0,1,.3.1,1.011,1.011,0,0,1,.247.087,1.656,1.656,0,0,1,.217.087l.435.174c.087.044.159.073.261.131l.261.131a1.945,1.945,0,0,0,.174.087c.145.073.276.16.421.247l.189.116c.3.189.609.392.884.595l.333.261c.058.044.1.087.2.174l.174.145c.13.116.247.232.377.363.087.073.159.16.247.247l.2.2c.087.1.174.2.276.319l.217.261c.058.087.131.16.232.29l.145.218c.073.087.13.188.247.348l.073.116.058.087.1.16c.043.087.1.174.145.261s.1.174.13.218l.043.087c.044.087.087.16.116.232.073.131.13.261.189.377a3.1,3.1,0,0,0,.145.319c.043.116.087.232.13.333l.1.276a7.373,7.373,0,0,1,.261.855c.029.073.044.16.072.247.058.261.116.522.16.8l.145,1.117A11.429,11.429,0,0,1,301.252,37.874Z" transform="translate(4.879 4.88)" fill="#0d0c22"/>
    <path id="Path_677" data-name="Path 677" d="M331.274,19.888a9.429,9.429,0,0,0-9.4-7.671h-4.611l-1.131-3.335a6.617,6.617,0,0,0-6.148-4.51c-3.9-.029-7.714-.029-11.339,0A6.665,6.665,0,0,0,292.5,8.9c-.333,1-.667,2.016-1.029,3.074l-.087.247h-4.64a9.469,9.469,0,0,0-9.541,9.556c-.015,5.177-.015,10.339,0,15.515v3.93a9.478,9.478,0,0,0,9.556,9.541h35.148a9.478,9.478,0,0,0,9.541-9.556V29.168l.014-7.41A8.43,8.43,0,0,0,331.274,19.888Zm-3.03,21.228a6.231,6.231,0,0,1-6.438,6.438h-34.96a6.231,6.231,0,0,1-6.438-6.438l-.015-19.068a6.287,6.287,0,0,1,6.627-6.627h19.807a1.606,1.606,0,0,0,1.581-.9,1.508,1.508,0,0,0-.116-1.61,1.584,1.584,0,0,0-1.508-.7c-2.552.015-5.1,0-7.656,0h-4.35l.159-.479c.087-.247.16-.508.232-.754a8.969,8.969,0,0,1,.566-1.552,3.266,3.266,0,0,1,3-1.856c3.8-.029,7.6-.029,11.165-.015a3.485,3.485,0,0,1,3.234,2.422l.072.2c.421,1.305.855,2.61,1.291,3.9a1.694,1.694,0,0,0,1.856,1.334h5.452a6.248,6.248,0,0,1,6.438,6.438Q328.265,31.5,328.244,41.116Z" fill="#0d0c22"/>
  </g>
</svg>
