<svg xmlns="http://www.w3.org/2000/svg" width="77.001" height="27.499" viewBox="0 0 77.001 27.499">
  <g id="car" transform="translate(131.642 -1243.808)">
    <path id="Path_376" data-name="Path 376" d="M-131.64,1261.845c.023,1.815.044,2.743.581,3.775a3.925,3.925,0,0,0,1.257,1.482,3.677,3.677,0,0,0,1.731.587,1.152,1.152,0,0,0,1.347-1,1.117,1.117,0,0,0-1.036-1.225c-1.049-.206-1.353-.566-1.357-1.613,0-1.1,0-2.191,0-3.357.789,0,1.53.013,2.268,0,.839-.021,1.315-.429,1.328-1.107.013-.71-.475-1.126-1.361-1.14-.672-.01-1.342,0-2.071,0a2.222,2.222,0,0,1,1.324-1.551,31.853,31.853,0,0,1,9.388-2.872,58.916,58.916,0,0,1,9.481-.551h17.523c.25,0,.5,0,.749-.018a1,1,0,0,0,.978-.951,1.008,1.008,0,0,0-.772-1.2,3.349,3.349,0,0,0-.889-.083c-2.146-.006-4.291,0-6.468,0,.013-.343.26-.5.424-.7,1.224-1.482,2.447-2.962,3.69-4.426a1.269,1.269,0,0,0,.327-1.436,1.271,1.271,0,0,0-1.322-.656c-.922.013-1.848.011-2.77.006a6.473,6.473,0,0,0-3.731,1.122c-2.853,1.921-5.725,3.813-8.58,5.732a2.012,2.012,0,0,1-1.176.362,44.062,44.062,0,0,0-14.351,2.171,30,30,0,0,0-3.44,1.446,5,5,0,0,0-1.89,1.538,5.257,5.257,0,0,0-.753,1.617A13,13,0,0,0-131.64,1261.845Zm25.687-10.918c2.166-1.442,4.241-2.816,6.31-4.2a4.57,4.57,0,0,1,3.013-.633c-.651.781-1.2,1.453-1.763,2.115-.787.928-1.419,2.208-2.424,2.674s-2.4.135-3.621.133A4.867,4.867,0,0,1-105.953,1250.927Z" transform="translate(0 0)" fill="#0d0c22"/>
    <path id="Path_377" data-name="Path 377" d="M-122.085,1270.555a6.883,6.883,0,0,0,7.276-2.886,1.183,1.183,0,0,1,1.1-.552q18.318.017,36.631-.006a1.157,1.157,0,0,1,1.1.551,7.06,7.06,0,0,0,11.637-.008,1.158,1.158,0,0,1,1.1-.545,4.728,4.728,0,0,0,5.017-5.015q.006-4.271,0-8.539a4.667,4.667,0,0,0-3.994-4.851q-6.973-1.349-13.954-2.631a5.9,5.9,0,0,0-4.893,1.24,3.6,3.6,0,0,0-3.055-2.833,3.47,3.47,0,0,0-3.933,3.111c-.065.912-.012,1.837-.012,2.741a4.239,4.239,0,0,1-1.255.1,1.124,1.124,0,0,0-1.163,1.194c.029.651.445,1.005,1.2,1.063a10.794,10.794,0,0,0,8.508-2.708c.366-.337.778-.622,1.168-.933a3.748,3.748,0,0,1,3.174-.735c3.7.685,7.4,1.392,11.157,2.1,0,.786-.006,1.507,0,2.231a3.5,3.5,0,0,0,3.542,3.65c.4.016.795,0,1.242,0,0,2.158.058,4.277-.021,6.391a2.385,2.385,0,0,1-2.587,2.139,7.177,7.177,0,0,0-2.308-6.534,6.807,6.807,0,0,0-4.845-1.828,6.912,6.912,0,0,0-5.413,2.608,7.137,7.137,0,0,0-1.536,5.765H-113.54a13.238,13.238,0,0,0-.1-2.7,7.106,7.106,0,0,0-7.484-5.648,7.116,7.116,0,0,0-6.614,6.649A7.1,7.1,0,0,0-122.085,1270.555Zm37.868-20.921a5.924,5.924,0,0,1-1.611.575c0-.849-.042-1.642.013-2.427a1.125,1.125,0,0,1,1.138-1.074,1.18,1.18,0,0,1,1.274.824A1.476,1.476,0,0,1-84.217,1249.634Zm23.662,4.352c-2.3.264-2.757-.322-2.422-3.112A2.5,2.5,0,0,1-60.555,1253.987Zm-14.484,9.652a4.849,4.849,0,0,1,4.847-4.922,4.9,4.9,0,0,1,4.9,4.814,4.928,4.928,0,0,1-4.863,4.945A4.911,4.911,0,0,1-75.039,1263.639Zm-50.467-.065a4.877,4.877,0,0,1,4.934-4.853,4.825,4.825,0,0,1,4.809,4.876,4.882,4.882,0,0,1-4.909,4.876A4.922,4.922,0,0,1-125.506,1263.573Z" transform="translate(3.593 0.588)" fill="#0d0c22"/>
    <path id="Path_378" data-name="Path 378" d="M-119.021,1253.7c.019.762.576,1.109,1.788,1.109h27.481c.2,0,.4.008.6-.005a1.174,1.174,0,0,0,1.222-1.146,1.154,1.154,0,0,0-1.19-1.1c-.449-.025-.9,0-1.347,0H-117.2C-118.466,1252.559-119.038,1252.921-119.021,1253.7Z" transform="translate(11.674 8.087)" fill="#0d0c22"/>
    <path id="Path_379" data-name="Path 379" d="M-98.872,1254.425c.006.78,2.141,2.876,2.845,2.872a1.024,1.024,0,0,0,.966-.579,1,1,0,0,0-.094-1.186c-.624-.674-1.27-1.328-1.95-1.944a.976.976,0,0,0-1.184-.067A1.168,1.168,0,0,0-98.872,1254.425Z" transform="translate(30.312 8.831)" fill="#0d0c22"/>
    <path id="Path_380" data-name="Path 380" d="M-125.069,1256.22a1.078,1.078,0,0,0,1.652.93,9.958,9.958,0,0,0,2.11-2.088.976.976,0,0,0-.218-1.4.976.976,0,0,0-1.361-.069c-.691.6-1.317,1.282-1.96,1.938A1,1,0,0,0-125.069,1256.22Z" transform="translate(6.08 8.823)" fill="#0d0c22"/>
  </g>
</svg>
