<svg xmlns="http://www.w3.org/2000/svg" width="60.629" height="60.623" viewBox="0 0 60.629 60.623">
  <path id="Path_3927" data-name="Path 3927" d="M149.645,837.355a14,14,0,0,1-13.969-14.1l0-11.477a2.37,2.37,0,0,1,4.044-1.677l.191.194a2.981,2.981,0,0,0,3.438.582,13.777,13.777,0,0,1,6.242-1.47h.015a13.971,13.971,0,1,1,.042,27.943Zm-9.234-21.6v7.539a9.234,9.234,0,1,0,18.467,0,9.283,9.283,0,0,0-9.279-9.143h-.009a9.123,9.123,0,0,0-4.123.964,7.662,7.662,0,0,1-5.056.64Zm-23.445,21.6c-12.45,0-18.655-15.126-9.819-23.887a13.854,13.854,0,0,1,9.822-4.056h11.6a2.374,2.374,0,0,1,1.673,4.044l-.191.191a2.976,2.976,0,0,0-.582,3.437,13.756,13.756,0,0,1,1.467,6.248,14.05,14.05,0,0,1-13.832,14.023Zm0-23.2a9.159,9.159,0,0,0-6.49,2.683,9.282,9.282,0,0,0-.027,13.117,9.184,9.184,0,0,0,6.608,2.667,9.284,9.284,0,0,0,9.143-9.285,9.106,9.106,0,0,0-.967-4.126,7.677,7.677,0,0,1-.637-5.056h-7.63Zm11.6-9.473a2.357,2.357,0,0,1-1.673-.694l-.194-.191a2.971,2.971,0,0,0-3.435-.582,13.816,13.816,0,0,1-6.242,1.467h-.015a13.97,13.97,0,1,1,13.926-13.844v11.477a2.363,2.363,0,0,1-2.367,2.368Zm-11.552-4.735a9.106,9.106,0,0,0,4.129-.967,7.673,7.673,0,0,1,5.056-.636V790.8a9.235,9.235,0,1,0-18.47,0,9.286,9.286,0,0,0,9.285,9.143Zm21.026,4.735a2.368,2.368,0,0,1-1.676-4.041l.194-.194a2.976,2.976,0,0,0,.582-3.435,13.808,13.808,0,0,1-1.47-6.25,13.983,13.983,0,0,1,13.835-14.02c12.516-.121,18.84,15.075,9.958,23.887a13.87,13.87,0,0,1-9.822,4.053Zm11.6-4.735a9.17,9.17,0,0,0,6.49-2.683,9.229,9.229,0,1,0-15.724-6.5,9.1,9.1,0,0,0,.964,4.128,7.656,7.656,0,0,1,.64,5.056Zm2.367-6.866h-4.735a2.369,2.369,0,0,1,0-4.738h4.735a2.369,2.369,0,0,1,0,4.738Zm-30.308-2.368a2.369,2.369,0,0,0-2.367-2.37H114.6a2.369,2.369,0,0,0,0,4.738h4.735a2.369,2.369,0,0,0,2.367-2.368Zm0,32.793a2.369,2.369,0,0,0-2.367-2.367H114.6a2.368,2.368,0,0,0,0,4.735h4.735a2.367,2.367,0,0,0,2.367-2.368Zm32.675,0a2.367,2.367,0,0,0-2.367-2.367h-4.735a2.368,2.368,0,0,0,0,4.735h4.735a2.365,2.365,0,0,0,2.367-2.368Zm0,0" transform="translate(-102.993 -776.734)" fill="#100f2a"/>
</svg>
