<svg xmlns="http://www.w3.org/2000/svg" width="49" height="60" viewBox="0 0 49 60">
  <g id="doctor" transform="translate(-246 -243.811)">
    <path id="Path_1205" data-name="Path 1205" d="M282.167,278.967h-4.648a1.185,1.185,0,0,1-.811-2.043,10.514,10.514,0,0,0,4.243-7.491,6.6,6.6,0,0,0,2.732-1.563,5.79,5.79,0,0,0,1.985-4.139,3.414,3.414,0,0,0-1.365-2.965,4.749,4.749,0,0,0-3.3-.63V244.981a1.168,1.168,0,0,0-1.166-1.171H261.168A1.171,1.171,0,0,0,260,244.981v15.154a4.749,4.749,0,0,0-3.3.63,3.414,3.414,0,0,0-1.362,2.965,5.8,5.8,0,0,0,1.982,4.139,6.633,6.633,0,0,0,2.732,1.565,10.58,10.58,0,0,0,4.28,7.516,1.185,1.185,0,0,1-.853,2.015c-4.074,0-5.686-.091-7.235.263A12.9,12.9,0,0,0,246,291.857v10.781a1.168,1.168,0,0,0,1.166,1.171h32.083a1.171,1.171,0,0,0,0-2.343h-4.871l5.7-20.158h2.087a10.13,10.13,0,0,1,1.166.066V286.2a3.5,3.5,0,1,0,2.335,0v-4.287a10.565,10.565,0,0,1,7,9.945v9.61H289.75a1.171,1.171,0,0,0,0,2.343h4.084A1.169,1.169,0,0,0,295,302.639V291.857a12.877,12.877,0,0,0-12.833-12.89Zm-18.191-5.628q.812.221,1.617.391a1.172,1.172,0,0,0,.483-2.294,28.8,28.8,0,0,1-3.489-.982,8.269,8.269,0,0,1-.252-2.035v-.559a20.136,20.136,0,0,0,16.332,0v.559a8.237,8.237,0,0,1-.252,2.033,28.152,28.152,0,0,1-3.489.984,1.172,1.172,0,0,0,.485,2.294c.537-.116,1.081-.246,1.627-.4a8.133,8.133,0,0,1-13.061,0Zm14.69-8.015a18.276,18.276,0,0,1-16.332,0v-5.1h16.332Zm4.29-2.643c.093.066.377.268.377,1.051A4.046,4.046,0,0,1,281,266.921V262.5a2.972,2.972,0,0,1,1.955.177Zm-20.622-16.528h16.332v11.719H262.334Zm-4.667,17.578c0-.783.284-.984.377-1.051A2.972,2.972,0,0,1,260,262.5v4.417A4.046,4.046,0,0,1,257.667,263.731ZM270.5,278.967a10.4,10.4,0,0,0,3.553-.62,3.415,3.415,0,0,0,.3.952l-3.851,3.869-3.846-3.864a3.216,3.216,0,0,0,.3-.955,10.425,10.425,0,0,0,3.548.618ZM265,280.96l3.53,3.544-3.746,1.883-1.436-5.077A3.6,3.6,0,0,0,265,280.96Zm-16.667,10.9a10.564,10.564,0,0,1,7-9.945v4.2a5.861,5.861,0,0,0-4.667,5.741v4.688a1.168,1.168,0,0,0,1.166,1.171h2.332a1.173,1.173,0,0,0,0-2.345H253v-3.514a3.5,3.5,0,1,1,7,0v3.514h-1.166a1.173,1.173,0,0,0,0,2.345h2.335a1.168,1.168,0,0,0,1.166-1.171v-4.688a5.864,5.864,0,0,0-4.667-5.741v-4.74a10.13,10.13,0,0,1,1.166-.066h2.09l5.7,20.158H248.332Zm20.715,9.61-3.616-12.787,5.069-2.545,5.069,2.545-3.616,12.787Zm7.169-15.081L272.47,284.5,276,280.96a3.5,3.5,0,0,0,1.521.349h.132Zm8.283,4.3a1.173,1.173,0,1,1,1.169-1.174A1.172,1.172,0,0,1,284.5,290.686Z" transform="translate(0 0)" fill="#0d0c22"/>
    <path id="Path_1206" data-name="Path 1206" d="M260.491,248.082h-1.183V246.9a1.183,1.183,0,1,0-2.367,0v1.183h-1.183a1.185,1.185,0,1,0,0,2.369h1.183v1.183a1.183,1.183,0,1,0,2.367,0v-1.183h1.183a1.185,1.185,0,1,0,0-2.369Z" transform="translate(12.376 2.831)" fill="#191e20"/>
    <path id="Path_1207" data-name="Path 1207" d="M266.206,264.762h-4.736a1.185,1.185,0,0,0,0,2.369h4.736a1.185,1.185,0,0,0,0-2.369Z" transform="translate(20.508 30.523)" fill="#191e20"/>
    <circle id="Ellipse_90" data-name="Ellipse 90" cx="1.184" cy="1.184" r="1.184" transform="translate(264.653 262.552)" fill="#191e20"/>
    <circle id="Ellipse_91" data-name="Ellipse 91" cx="1.184" cy="1.184" r="1.184" transform="translate(273.979 262.552)" fill="#191e20"/>
    <circle id="Ellipse_92" data-name="Ellipse 92" cx="1.184" cy="1.184" r="1.184" transform="translate(283.306 301.442)" fill="#191e20"/>
  </g>
</svg>
