<svg xmlns="http://www.w3.org/2000/svg" width="71.306" height="79.229" viewBox="0 0 71.306 79.229">
  <path id="dress_icon" data-name="dress icon" d="M56.447,792.18h68.665a1.319,1.319,0,0,0,1.319-1.319,1.226,1.226,0,0,0-.007-.145,69.755,69.755,0,0,0-19.932-41.468L98.7,741.457v-4.524l1.057-3.17a1.338,1.338,0,0,1,.319-.518l2.2-2.2a1.314,1.314,0,0,0,.384-.927v-6.6a1.3,1.3,0,0,0-1.005-1.256v-.024l-1.8-.451v-.908a1.321,1.321,0,0,0-2.641,0v.248L92.1,719.843v-2.929a1.321,1.321,0,0,1,2.641,0,1.321,1.321,0,1,0,2.641,0,3.962,3.962,0,1,0-7.924,0v2.929l-5.446,1.365v-.332a1.321,1.321,0,0,0-2.641,0v.993l-1.5.376.01.02a1.3,1.3,0,0,0-.984,1.251v6.6a1.324,1.324,0,0,0,.387.934l2.2,2.2a1.362,1.362,0,0,1,.319.516l1.057,3.17v4.522l-7.791,7.791a69.749,69.749,0,0,0-19.933,41.465,1.32,1.32,0,0,0,1.167,1.457A1.259,1.259,0,0,0,56.447,792.18Zm48.179-41.067a67.122,67.122,0,0,1,18.993,38.427H109.265V780.86a69.159,69.159,0,0,0-5.445-26.974l-2.61-6.181ZM90.779,722.236l5.843,1.462L93,724.9a1.328,1.328,0,0,0-.763.659l-1.459,2.923-1.453-2.919a1.318,1.318,0,0,0-.764-.66L84.941,723.7Zm-9.244,7.336v-4.226l5.666,1.888,2.4,4.792a1.32,1.32,0,0,0,2.363,0l2.4-4.792,5.666-1.885v4.225l-1.813,1.813a3.982,3.982,0,0,0-.958,1.547l-.823,2.466h-11.3l-.82-2.47a3.988,3.988,0,0,0-.957-1.546Zm14.525,8.47v2.64H85.5v-2.64Zm-11.048,5.281H86.58l-1.064,6.385a1.321,1.321,0,0,0,1.084,1.52h0a1.226,1.226,0,0,0,.217.019,1.324,1.324,0,0,0,1.3-1.1l1.138-6.821H92.3l1.137,6.821a1.321,1.321,0,0,0,1.3,1.1,1.242,1.242,0,0,0,.218-.019,1.321,1.321,0,0,0,1.085-1.52h0l-1.065-6.385H96.5l4.886,11.593a66.494,66.494,0,0,1,5.234,25.944v8.681H73.613v-7.118a67.3,67.3,0,0,1,6.433-28.62Zm-8.08,7.791,2.788-2.788-2.059,4.347a69.952,69.952,0,0,0-6.689,29.75v7.118H57.939A67.122,67.122,0,0,1,76.932,751.114Z" transform="translate(-55.125 -712.952)" fill="#0d0c22"/>
</svg>
