<svg id="Group_15328" data-name="Group 15328" xmlns="http://www.w3.org/2000/svg" xmlns:xlink="http://www.w3.org/1999/xlink" width="41.372" height="32.61" viewBox="0 0 41.372 32.61">
  <defs>
    <linearGradient id="linear-gradient" x2="0.859" y2="1.142" gradientUnits="objectBoundingBox">
      <stop offset="0" stop-color="#e7cb75"/>
      <stop offset="1" stop-color="#dfba60"/>
    </linearGradient>
  </defs>
  <g id="Group_13663" data-name="Group 13663" transform="translate(3.135 6.152)">
    <path id="Path_83996" data-name="Path 83996" d="M2543.075-649.941c-.991.247-1.961.584-2.952.834a7.119,7.119,0,0,1-7.643-2.313c-1.326-1.525-2.643-3.058-3.965-4.586-.362-.419-.739-.82-1.38-.686-.576-.086-.87.328-1.179.689-1.338,1.56-2.656,3.137-4,4.691a6.829,6.829,0,0,1-7.55,2.232c-1.049-.3-2.085-.643-3.142-.9-.82-.2-1.389.318-1.175,1.109.465,1.727,1.012,3.433,1.525,5.148.83,2.9,1.668,5.788,2.487,8.687.153.548.509.654,1.013.649,1.733-.018,3.465,0,5.2-.01q4.957-.016,9.912-.041c3.071.016,6.143.017,9.214.058.63.008.824-.322.969-.828.529-1.873,1.058-3.748,1.626-5.61a25.049,25.049,0,0,1,1.05-3.742,30.176,30.176,0,0,0,1.128-4.16C2544.506-649.769,2544.108-650.2,2543.075-649.941Z" transform="translate(-2510.045 656.719)" fill="url(#linear-gradient)"/>
    <path id="Path_83997" data-name="Path 83997" d="M2558.619-532.042c.032-.513-.167-.762-.721-.759q-6.494.03-12.986.032c-3.65-.014-7.3-.022-10.95-.048-.544,0-.754.229-.738.746.013.352.017.7,0,1.056-.029.577.226.793.8.78,1.7-.037,3.393-.038,5.09-.053.351.017.7.048,1.053.048q8.47,0,16.938-.016c1.534,0,1.534,0,1.516-1.5C2558.617-531.85,2558.613-531.947,2558.619-532.042Z" transform="translate(-2528.754 556.693)" fill="url(#linear-gradient)"/>
  </g>
  <g id="Group_13664" data-name="Group 13664">
    <path id="Path_83998" data-name="Path 83998" d="M2589.475-684.023a2.32,2.32,0,0,1-2.3-2.333,2.324,2.324,0,0,1,2.349-2.284,2.342,2.342,0,0,1,2.3,2.338A2.336,2.336,0,0,1,2589.475-684.023Z" transform="translate(-2569.178 688.641)" fill="url(#linear-gradient)"/>
    <path id="Path_83999" data-name="Path 83999" d="M2692.127-641.7a1.763,1.763,0,0,1,1.75,1.7,1.785,1.785,0,0,1-1.79,1.763,1.767,1.767,0,0,1-1.7-1.756A1.743,1.743,0,0,1,2692.127-641.7Z" transform="translate(-2652.505 650.746)" fill="url(#linear-gradient)"/>
    <path id="Path_84000" data-name="Path 84000" d="M2497.237-639.953a1.748,1.748,0,0,1-1.731,1.707,1.75,1.75,0,0,1-1.727-1.716,1.727,1.727,0,0,1,1.783-1.743A1.72,1.72,0,0,1,2497.237-639.953Z" transform="translate(-2493.779 650.751)" fill="url(#linear-gradient)"/>
  </g>
</svg>
