<svg id="Group_1662" data-name="Group 1662" xmlns="http://www.w3.org/2000/svg" xmlns:xlink="http://www.w3.org/1999/xlink" width="376.741" height="239.067" viewBox="0 0 376.741 239.067">
  <defs>
    <linearGradient id="linear-gradient" y1="0.5" x2="1" y2="0.5" gradientUnits="objectBoundingBox">
      <stop offset="0" stop-color="#1c67bf"/>
      <stop offset="1" stop-color="#1c65bf"/>
    </linearGradient>
    <linearGradient id="linear-gradient-2" y1="0.5" x2="1" y2="0.5" gradientUnits="objectBoundingBox">
      <stop offset="0" stop-color="#3973a7"/>
      <stop offset="1" stop-color="#396fa7"/>
    </linearGradient>
    <linearGradient id="linear-gradient-3" y1="0.5" x2="1" y2="0.5" gradientUnits="objectBoundingBox">
      <stop offset="0" stop-color="#55808f"/>
      <stop offset="1" stop-color="#557a8f"/>
    </linearGradient>
    <linearGradient id="linear-gradient-4" y1="0.5" x2="1" y2="0.5" gradientUnits="objectBoundingBox">
      <stop offset="0" stop-color="#718c77"/>
      <stop offset="1" stop-color="#718477"/>
    </linearGradient>
    <linearGradient id="linear-gradient-5" y1="0.5" x2="1" y2="0.5" gradientUnits="objectBoundingBox">
      <stop offset="0" stop-color="#8e9960"/>
      <stop offset="1" stop-color="#8e8f60"/>
    </linearGradient>
    <linearGradient id="linear-gradient-6" y1="0.5" x2="1" y2="0.5" gradientUnits="objectBoundingBox">
      <stop offset="0" stop-color="#aaa548"/>
      <stop offset="1" stop-color="#aa9948"/>
    </linearGradient>
    <linearGradient id="linear-gradient-7" y1="0.5" x2="1" y2="0.5" gradientUnits="objectBoundingBox">
      <stop offset="0" stop-color="#c6b230"/>
      <stop offset="1" stop-color="#c6a430"/>
    </linearGradient>
    <linearGradient id="linear-gradient-8" y1="0.5" x2="1" y2="0.5" gradientUnits="objectBoundingBox">
      <stop offset="0" stop-color="#e3be18"/>
      <stop offset="1" stop-color="#e3ae18"/>
    </linearGradient>
    <linearGradient id="linear-gradient-9" y1="0.5" x2="1" y2="0.5" gradientUnits="objectBoundingBox">
      <stop offset="0" stop-color="#ffcb00"/>
      <stop offset="1" stop-color="#ffb900"/>
    </linearGradient>
  </defs>
  <g id="Group_1660" data-name="Group 1660">
    <path id="Path_455" data-name="Path 455" d="M102.4,1543.155l-71.214,65q-8.29,7.977,4.8,10.044l38.638,6.118-79.709,72.757q-8.928,8.15,4.293,10.229,13.486,2.135,22.4-6l79.709-72.755,14.509,2.3q13.984,2.215,23.152-6.163,8.575-7.824-5.39-10.053l-14.389-2.279,19.851-18.246q8.831-8.061-4.646-10.2-13.221-2.09-22.045,5.976L92.385,1608.1,67.093,1604.1l62.116-56.7q8.831-8.061-4.51-10.178Q111.217,1535.084,102.4,1543.155Zm-183.826,61.913q-12.78,3.431-20.18,10.184l-52.679,48.085,66.474,10.526q13.984,2.215,4.82,10.593-9.185,8.382-23.173,6.158l-79.445-12.583c-8.712-1.38-10.422-4.74-5.053-10.082L-128.435,1611q14.8-13.51,40.606-20.426,25.925-6.905,48.412-3.349a57.509,57.509,0,0,0,23.957-1.659q13.217-3.546,20.6-10.3l17.765-16.213q7.479-6.83,4.638-12.744-2.628-5.87-13.776-7.635a59.348,59.348,0,0,0-24.23,1.613q-12.8,3.447-20.271,10.269c-6.07,5.54-13.461,7.514-22.352,6.1q-13.482-2.135-4.646-10.2c10.023-9.148,23.561-15.954,40.775-20.581q26.266-6.933,48.49-3.421Q53.86,1526,58.929,1538q5.589,11.808-9.191,25.3l-17.765,16.216q-14.782,13.49-40.941,20.456-26,6.977-48.214,3.464A59.2,59.2,0,0,0-81.425,1605.068Z" transform="translate(234.196 -1468.681)" fill="#005ad7"/>
    <path id="Path_456" data-name="Path 456" d="M100.717,1539.68l-71.211,65q-8.29,7.976,4.8,10.042l38.638,6.121L-6.77,1693.6q-8.928,8.149,4.293,10.229,13.482,2.134,22.4-6l79.709-72.757,14.509,2.3q13.988,2.219,23.155-6.161,8.575-7.829-5.39-10.053l-14.391-2.279,19.854-18.247q8.827-8.061-4.649-10.2-13.217-2.095-22.045,5.973L90.7,1604.629l-25.292-4,62.116-56.7q8.832-8.061-4.51-10.181Q109.536,1531.612,100.717,1539.68ZM-83.109,1601.6q-12.776,3.431-20.177,10.184l-52.681,48.083,66.474,10.529q13.988,2.215,4.823,10.593-9.185,8.382-23.173,6.158l-79.445-12.583c-8.712-1.38-10.422-4.74-5.053-10.082l62.226-56.948q14.8-13.51,40.606-20.423,25.921-6.905,48.412-3.349a57.509,57.509,0,0,0,23.955-1.658q13.221-3.547,20.605-10.3l17.765-16.216c4.986-4.55,6.482-8.768,4.638-12.741-1.8-3.889-6.345-6.458-13.776-7.634a59.263,59.263,0,0,0-24.233,1.613q-12.8,3.447-20.268,10.267c-6.07,5.54-13.463,7.516-22.352,6.107q-13.486-2.135-4.649-10.2c10.026-9.151,23.553-15.994,40.778-20.581,17.5-4.663,33.684-5.767,48.49-3.422q22.326,3.535,27.395,15.539,5.589,11.809-9.191,25.3l-17.765,16.213Q15.51,1589.541-10.651,1596.5q-26,6.973-48.211,3.464A59.236,59.236,0,0,0-83.109,1601.6Z" transform="translate(231.38 -1474.515)" fill="url(#linear-gradient)"/>
    <path id="Path_457" data-name="Path 457" d="M99.037,1536.2l-71.214,65q-8.29,7.977,4.8,10.042l38.638,6.121L-8.45,1690.123q-8.928,8.146,4.293,10.227,13.482,2.139,22.4-6l79.709-72.757,14.509,2.3q13.988,2.215,23.152-6.16,8.575-7.829-5.387-10.053l-14.391-2.279,19.851-18.249q8.831-8.057-4.646-10.2-13.217-2.095-22.045,5.973L89.024,1601.15l-25.292-4,62.116-56.7q8.827-8.057-4.51-10.178Q107.852,1528.133,99.037,1536.2Zm-183.826,61.915q-12.78,3.427-20.18,10.184l-52.679,48.083,66.474,10.529q13.988,2.215,4.82,10.593t-23.171,6.158l-79.445-12.583c-8.715-1.38-10.422-4.74-5.056-10.085l62.228-56.945q14.8-13.51,40.606-20.426,25.921-6.9,48.409-3.349a57.454,57.454,0,0,0,23.957-1.659q13.221-3.546,20.605-10.3L19.547,1552.1c4.986-4.55,6.479-8.769,4.636-12.743-1.8-3.887-6.342-6.458-13.774-7.635a59.318,59.318,0,0,0-24.233,1.616q-12.8,3.447-20.271,10.267c-6.07,5.54-13.461,7.514-22.352,6.107q-13.482-2.135-4.646-10.2c10.023-9.148,23.551-15.991,40.778-20.579,17.5-4.663,33.684-5.767,48.49-3.421q22.326,3.535,27.395,15.536,5.589,11.813-9.194,25.306l-17.762,16.213q-14.782,13.494-40.943,20.458-26,6.973-48.211,3.464A59.225,59.225,0,0,0-84.789,1598.116Z" transform="translate(228.564 -1480.342)" fill="url(#linear-gradient-2)"/>
    <path id="Path_458" data-name="Path 458" d="M97.357,1532.722l-71.214,65q-8.29,7.977,4.8,10.044l38.64,6.121-79.712,72.755q-8.928,8.149,4.293,10.229,13.486,2.134,22.4-6l79.709-72.757,14.509,2.3q13.988,2.215,23.152-6.161,8.575-7.828-5.387-10.055l-14.391-2.279L134,1583.67q8.831-8.057-4.646-10.2-13.217-2.094-22.045,5.974l-19.971,18.227-25.292-4.007,62.116-56.7q8.831-8.057-4.51-10.178Q106.173,1524.654,97.357,1532.722Zm-183.826,61.916q-12.78,3.426-20.18,10.184l-52.679,48.083,66.474,10.529q13.988,2.215,4.82,10.59t-23.173,6.16l-79.445-12.583c-8.712-1.38-10.422-4.74-5.053-10.084l62.226-56.945q14.8-13.51,40.609-20.426,25.921-6.906,48.409-3.349a57.514,57.514,0,0,0,23.957-1.659q13.221-3.546,20.6-10.3l17.765-16.213c4.986-4.55,6.482-8.768,4.638-12.743-1.8-3.889-6.342-6.458-13.774-7.635a59.319,59.319,0,0,0-24.233,1.616q-12.8,3.447-20.271,10.267c-6.07,5.54-13.461,7.514-22.352,6.107q-13.482-2.139-4.646-10.2c10.023-9.149,23.551-15.991,40.778-20.582,17.5-4.66,33.684-5.764,48.487-3.418q22.326,3.535,27.395,15.536,5.593,11.813-9.191,25.3l-17.765,16.216q-14.778,13.49-40.941,20.456-26,6.978-48.214,3.467A59.114,59.114,0,0,0-86.469,1594.638Z" transform="translate(225.747 -1486.17)" fill="url(#linear-gradient-3)"/>
    <path id="Path_459" data-name="Path 459" d="M95.673,1529.244l-71.211,65q-8.29,7.977,4.8,10.044l38.638,6.118-79.709,72.757q-8.928,8.15,4.293,10.229,13.482,2.135,22.4-6l79.712-72.757,14.507,2.3q13.988,2.215,23.155-6.163,8.575-7.825-5.39-10.053l-14.389-2.279,19.851-18.246q8.827-8.061-4.649-10.2-13.217-2.09-22.042,5.976L85.66,1594.193l-25.292-4.007,62.116-56.7q8.831-8.061-4.51-10.178Q104.492,1521.172,95.673,1529.244Zm-183.826,61.913q-12.776,3.431-20.177,10.184l-52.679,48.085,66.471,10.526q13.988,2.219,4.823,10.593-9.185,8.383-23.173,6.158l-79.445-12.583c-8.712-1.38-10.422-4.74-5.053-10.083l62.226-56.945q14.8-13.511,40.606-20.426,25.921-6.906,48.412-3.35a57.493,57.493,0,0,0,23.955-1.658q13.221-3.547,20.605-10.3l17.765-16.213c4.986-4.553,6.482-8.769,4.638-12.744-1.8-3.889-6.342-6.458-13.776-7.634a59.343,59.343,0,0,0-24.23,1.613q-12.8,3.447-20.271,10.269c-6.07,5.54-13.463,7.514-22.352,6.1q-13.486-2.135-4.649-10.2c10.026-9.149,23.553-15.991,40.778-20.581,17.5-4.663,33.686-5.765,48.49-3.421q22.326,3.539,27.395,15.539,5.589,11.809-9.191,25.3L25.248,1565.61q-14.782,13.49-40.941,20.456-26,6.977-48.214,3.464A59.227,59.227,0,0,0-88.153,1591.157Z" transform="translate(222.932 -1491.998)" fill="url(#linear-gradient-4)"/>
    <path id="Path_460" data-name="Path 460" d="M93.992,1525.762l-71.214,65q-8.286,7.977,4.8,10.042l38.638,6.121-79.709,72.757q-8.928,8.15,4.293,10.229,13.482,2.135,22.4-6l79.709-72.757,14.509,2.3q13.988,2.215,23.152-6.163,8.579-7.828-5.387-10.053l-14.391-2.279,19.854-18.246q8.827-8.061-4.649-10.2-13.217-2.1-22.045,5.973l-19.969,18.23-25.292-4.007,62.116-56.7q8.827-8.061-4.51-10.181Q102.807,1517.694,93.992,1525.762Zm-183.826,61.916q-12.78,3.431-20.177,10.184l-52.681,48.083,66.474,10.529q13.988,2.215,4.82,10.593t-23.171,6.158l-79.445-12.583c-8.712-1.38-10.422-4.74-5.053-10.082l62.226-56.948q14.8-13.51,40.606-20.424,25.921-6.906,48.409-3.349a57.5,57.5,0,0,0,23.957-1.658q13.221-3.547,20.605-10.3L14.5,1541.665c4.986-4.55,6.482-8.769,4.638-12.741-1.806-3.889-6.345-6.458-13.776-7.635a59.271,59.271,0,0,0-24.233,1.613q-12.8,3.447-20.271,10.267c-6.07,5.54-13.461,7.516-22.35,6.107q-13.486-2.134-4.649-10.2c10.023-9.151,23.553-15.994,40.778-20.581,17.5-4.663,33.684-5.765,48.49-3.421q22.326,3.535,27.395,15.539,5.589,11.808-9.191,25.3l-17.765,16.213q-14.782,13.494-40.943,20.459-26,6.973-48.211,3.464A59.216,59.216,0,0,0-89.834,1587.678Z" transform="translate(220.116 -1466.664)" fill="url(#linear-gradient-5)"/>
    <path id="Path_461" data-name="Path 461" d="M92.312,1522.284l-71.214,65q-8.29,7.976,4.8,10.042l38.638,6.121-79.712,72.757q-8.928,8.149,4.293,10.229,13.486,2.134,22.4-6l79.709-72.757,14.509,2.3q13.988,2.215,23.152-6.161,8.575-7.829-5.387-10.053l-14.391-2.279,19.851-18.249q8.831-8.057-4.646-10.2-13.217-2.095-22.045,5.973L82.3,1587.233l-25.295-4,62.116-56.7q8.831-8.057-4.507-10.178Q101.127,1514.216,92.312,1522.284ZM-91.514,1584.2q-12.78,3.427-20.18,10.184l-52.679,48.083L-97.9,1653q13.988,2.215,4.82,10.593t-23.171,6.158l-79.445-12.583c-8.715-1.38-10.422-4.74-5.056-10.085l62.226-56.945q14.8-13.51,40.609-20.426,25.921-6.9,48.409-3.349a57.458,57.458,0,0,0,23.957-1.658q13.221-3.546,20.605-10.3l17.762-16.216c4.986-4.55,6.482-8.769,4.638-12.744-1.8-3.887-6.342-6.458-13.774-7.634a59.311,59.311,0,0,0-24.233,1.616q-12.8,3.447-20.271,10.267c-6.07,5.54-13.461,7.514-22.352,6.107q-13.482-2.135-4.646-10.2c10.023-9.149,23.551-15.991,40.778-20.579,17.5-4.663,33.684-5.767,48.487-3.422q22.326,3.535,27.4,15.536,5.589,11.813-9.194,25.305L21.885,1558.65q-14.778,13.494-40.941,20.458-26,6.973-48.214,3.464A59.219,59.219,0,0,0-91.514,1584.2Z" transform="translate(217.299 -1472.492)" fill="url(#linear-gradient-6)"/>
    <path id="Path_462" data-name="Path 462" d="M90.632,1518.805l-71.214,65q-8.29,7.981,4.8,10.045l38.638,6.121-79.709,72.754q-8.928,8.15,4.293,10.229,13.486,2.139,22.4-6L89.546,1604.2l14.509,2.3q13.984,2.215,23.152-6.16,8.575-7.829-5.39-10.053L107.428,1588l19.851-18.246q8.831-8.057-4.646-10.2-13.221-2.095-22.045,5.973l-19.971,18.228-25.292-4,62.116-56.7q8.831-8.057-4.51-10.178Q99.448,1510.737,90.632,1518.805ZM-93.2,1580.72q-12.776,3.427-20.177,10.184l-52.679,48.083,66.474,10.529q13.984,2.215,4.82,10.59-9.185,8.382-23.174,6.161l-79.445-12.583c-8.712-1.38-10.422-4.74-5.053-10.085l62.226-56.945q14.8-13.51,40.606-20.426,25.925-6.906,48.412-3.349a57.5,57.5,0,0,0,23.955-1.658q13.221-3.547,20.605-10.3l17.765-16.213c4.986-4.55,6.482-8.769,4.638-12.743-1.8-3.889-6.342-6.458-13.776-7.635a59.3,59.3,0,0,0-24.23,1.616q-12.8,3.447-20.271,10.267c-6.07,5.54-13.461,7.514-22.352,6.107q-13.486-2.135-4.646-10.2c10.023-9.148,23.551-15.991,40.775-20.582,17.5-4.66,33.686-5.764,48.49-3.418q22.325,3.535,27.395,15.536,5.589,11.813-9.191,25.3L20.2,1555.172q-14.782,13.494-40.941,20.456-26,6.978-48.214,3.467A59.131,59.131,0,0,0-93.2,1580.72Z" transform="translate(214.483 -1478.32)" fill="url(#linear-gradient-7)"/>
    <path id="Path_463" data-name="Path 463" d="M88.948,1515.327l-71.211,65q-8.29,7.977,4.8,10.045l38.638,6.117-79.709,72.758q-8.928,8.149,4.293,10.229,13.482,2.134,22.4-6l79.709-72.757,14.509,2.3q13.988,2.215,23.155-6.163,8.575-7.824-5.39-10.053l-14.391-2.279,19.854-18.246q8.827-8.061-4.649-10.2-13.217-2.09-22.045,5.976l-19.969,18.228-25.292-4.007,62.116-56.7q8.827-8.061-4.51-10.178Q97.767,1507.255,88.948,1515.327ZM-94.878,1577.24q-12.776,3.43-20.177,10.184l-52.681,48.086,66.474,10.526q13.988,2.219,4.82,10.593t-23.171,6.158l-79.445-12.583c-8.712-1.378-10.422-4.74-5.053-10.082l62.226-56.945q14.8-13.511,40.606-20.426,25.921-6.906,48.412-3.349a57.493,57.493,0,0,0,23.955-1.658q13.221-3.547,20.605-10.3l17.765-16.213c4.986-4.552,6.482-8.769,4.638-12.743-1.806-3.889-6.345-6.458-13.776-7.635a59.322,59.322,0,0,0-24.233,1.616q-12.8,3.442-20.268,10.267c-6.07,5.54-13.463,7.514-22.352,6.107q-13.486-2.138-4.649-10.2c10.026-9.149,23.553-15.991,40.778-20.582,17.5-4.662,33.684-5.764,48.49-3.421q22.326,3.539,27.395,15.539,5.589,11.809-9.191,25.3l-17.765,16.216q-14.782,13.49-40.943,20.456-26,6.978-48.211,3.464A59.219,59.219,0,0,0-94.878,1577.24Z" transform="translate(211.667 -1484.148)" fill="url(#linear-gradient-8)"/>
    <path id="Path_464" data-name="Path 464" d="M87.268,1511.839l-71.214,65q-8.29,7.977,4.8,10.042L59.491,1593l-79.709,72.757q-8.928,8.15,4.293,10.229,13.482,2.135,22.4-6l79.709-72.757,14.509,2.3q13.988,2.215,23.152-6.163,8.575-7.828-5.387-10.053l-14.391-2.279,19.851-18.246q8.831-8.061-4.646-10.2-13.217-2.095-22.045,5.973l-19.969,18.23-25.292-4.007,62.116-56.7q8.827-8.061-4.51-10.181Q96.083,1503.772,87.268,1511.839Zm-183.826,61.916q-12.78,3.431-20.18,10.184l-52.679,48.083,66.474,10.529q13.988,2.215,4.82,10.593t-23.171,6.158l-79.445-12.583c-8.715-1.38-10.422-4.74-5.056-10.082l62.226-56.948q14.8-13.506,40.609-20.424,25.921-6.906,48.409-3.349a57.5,57.5,0,0,0,23.957-1.658q13.221-3.546,20.605-10.3l17.765-16.216q7.475-6.825,4.636-12.741-2.624-5.87-13.774-7.634a59.265,59.265,0,0,0-24.233,1.613q-12.8,3.447-20.271,10.266c-6.07,5.54-13.461,7.517-22.352,6.107q-13.482-2.135-4.647-10.2C-62.84,1506-49.3,1499.2-32.085,1494.572q26.266-6.933,48.49-3.421,22.326,3.535,27.395,15.539,5.589,11.809-9.194,25.3l-17.762,16.216Q2.061,1561.7-24.1,1568.664q-26,6.974-48.214,3.464A59.21,59.21,0,0,0-96.558,1573.755Z" transform="translate(208.851 -1489.969)" fill="url(#linear-gradient-9)"/>
  </g>
  <g id="Group_1661" data-name="Group 1661">
    <path id="Path_465" data-name="Path 465" d="M-96.558,1573.755q-12.78,3.431-20.18,10.184l-52.679,48.083,66.474,10.529q13.988,2.215,4.82,10.593t-23.171,6.158l-79.445-12.583c-8.715-1.38-10.422-4.74-5.056-10.082l62.226-56.948q14.8-13.506,40.609-20.424,25.921-6.906,48.409-3.349a57.5,57.5,0,0,0,23.957-1.658q13.221-3.546,20.605-10.3l17.765-16.216q7.475-6.825,4.636-12.741-2.624-5.87-13.774-7.634a59.265,59.265,0,0,0-24.233,1.613q-12.8,3.447-20.271,10.266c-6.07,5.54-13.461,7.517-22.352,6.107q-13.482-2.135-4.647-10.2C-62.84,1506-49.3,1499.2-32.085,1494.572q26.266-6.933,48.49-3.421,22.326,3.535,27.395,15.539,5.589,11.809-9.194,25.3l-17.762,16.216Q2.061,1561.7-24.1,1568.664q-26,6.974-48.214,3.464A59.21,59.21,0,0,0-96.558,1573.755Zm183.826-61.916-71.214,65q-8.29,7.977,4.8,10.042L59.491,1593l-79.709,72.757q-8.928,8.15,4.293,10.229,13.482,2.135,22.4-6l79.709-72.757,14.509,2.3q13.988,2.215,23.152-6.163,8.575-7.828-5.387-10.053l-14.391-2.279,19.851-18.246q8.831-8.061-4.646-10.2-13.217-2.095-22.045,5.973l-19.969,18.23-25.292-4.007,62.116-56.7q8.827-8.061-4.51-10.181Q96.083,1503.772,87.268,1511.839Z" transform="translate(208.851 -1489.969)" fill="#fff"/>
  </g>
</svg>
