<svg xmlns="http://www.w3.org/2000/svg" width="598" height="172" viewBox="0 0 598 172" fill="none"><g clip-path="url(#clip0_1_12)"><path fill-rule="evenodd" clip-rule="evenodd" d="M28.879 98.0764V171.093H0.963989V83.8734L28.879 98.0764Z" fill="black"></path><path fill-rule="evenodd" clip-rule="evenodd" d="M82.4123 57.0861L41.7503 46.8531C32.8553 43.7181 28.8803 40.8721 28.8803 30.8391V0.907104H0.964294V31.7761C0.964294 51.8141 4.74429 66.5641 34.2263 74.2181L74.8883 84.4511C75.0213 84.4851 75.1483 84.5161 75.2793 84.5481C83.8913 87.6271 87.7573 90.5381 87.7583 100.413V170.187H115.674V99.5291C115.674 68.5811 101.974 62.0091 82.4123 57.0861Z" fill="#1ED68D"></path><path fill-rule="evenodd" clip-rule="evenodd" d="M424.085 135.766C420.712 138.996 416.588 141.568 411.811 143.405C407.022 145.241 401.592 146.17 395.665 146.17C385.442 146.17 376.988 143.144 370.559 137.183C364.23 131.323 360.129 123.752 358.362 114.663C357.139 108.373 357.173 102.365 358.462 96.8122C359.731 91.2702 362.077 86.4302 365.4 82.4182C368.709 78.4512 372.909 75.2782 377.879 72.9772C382.881 70.6652 388.625 69.4872 394.938 69.4872C400.979 69.4872 406.467 70.5522 411.272 72.6492C416.127 74.7682 420.306 77.6692 423.695 81.2852C427.044 84.8662 429.701 89.1502 431.589 94.0242C433.455 98.8412 434.371 104.02 434.323 109.313C434.463 114.696 433.619 119.684 431.836 124.16C430.062 128.614 427.456 132.525 424.085 135.766ZM438.044 46.8872L436.143 60.6012C432.041 56.8152 427.762 53.8692 423.554 51.5792C419.335 49.2902 415.187 47.6582 411.358 46.5022C408.991 45.7542 406.578 45.1762 404.148 44.7452C396.893 43.3962 391.945 43.7142 391.945 43.7142L391.97 43.7252C390.676 43.7142 389.388 43.7362 388.13 43.7932C377.279 44.2922 367.724 46.7402 359.769 51.0582C351.761 55.3992 345.271 61.0772 340.483 67.9342C335.678 74.8132 332.41 82.7812 330.776 91.6332C329.141 100.484 329.268 109.88 331.149 119.559C332.863 128.376 335.669 136.106 339.493 142.544C343.281 148.913 347.851 154.229 353.068 158.331C358.326 162.468 364.161 165.664 370.405 167.817C376.699 169.993 383.237 171.093 389.856 171.093C393.653 171.093 397.263 170.889 400.703 170.515L400.694 170.526C400.694 170.526 402.604 170.379 405.658 169.823C408.705 169.291 411.588 168.611 414.265 167.749C414.351 167.727 414.435 167.693 414.519 167.659C421.215 165.593 429.139 162.076 435.388 156.192L438.285 171.093H464.919L464.92 170.98L465.245 46.8872H438.044Z" fill="black"></path><path fill-rule="evenodd" clip-rule="evenodd" d="M226.734 135.766C223.361 138.996 219.237 141.568 214.46 143.405C209.671 145.241 204.241 146.17 198.314 146.17C188.091 146.17 179.637 143.144 173.208 137.183C166.879 131.323 162.778 123.752 161.011 114.663C159.788 108.373 159.822 102.365 161.111 96.8122C162.38 91.2702 164.726 86.4302 168.049 82.4182C171.358 78.4512 175.558 75.2782 180.528 72.9772C185.53 70.6652 191.274 69.4872 197.587 69.4872C203.628 69.4872 209.116 70.5522 213.921 72.6492C218.776 74.7682 222.955 77.6692 226.344 81.2852C229.693 84.8662 232.35 89.1502 234.238 94.0242C236.103 98.8412 237.02 104.02 236.972 109.313C237.112 114.696 236.268 119.684 234.485 124.16C232.711 128.614 230.105 132.525 226.734 135.766ZM240.693 46.8872L238.792 60.6012C234.69 56.8152 230.411 53.8692 226.203 51.5792C221.984 49.2902 217.836 47.6582 214.007 46.5022C211.64 45.7542 209.227 45.1762 206.797 44.7452C199.542 43.3962 194.594 43.7142 194.594 43.7142L194.619 43.7252C193.325 43.7142 192.037 43.7362 190.779 43.7932C179.928 44.2922 170.373 46.7402 162.418 51.0582C154.41 55.3992 147.92 61.0772 143.132 67.9342C138.327 74.8132 135.059 82.7812 133.425 91.6332C131.79 100.484 131.917 109.88 133.798 119.559C135.512 128.376 138.318 136.106 142.142 142.544C145.93 148.913 150.5 154.229 155.717 158.331C160.975 162.468 166.81 165.664 173.054 167.817C179.348 169.993 185.886 171.093 192.505 171.093C196.302 171.093 199.912 170.889 203.352 170.515L203.343 170.526C203.343 170.526 205.253 170.379 208.307 169.823C211.354 169.291 214.237 168.611 216.914 167.749C217 167.727 217.084 167.693 217.168 167.659C223.864 165.593 231.788 162.076 238.037 156.192L240.934 171.093H267.568L267.569 170.98L267.894 46.8872H240.693Z" fill="black"></path><path fill-rule="evenodd" clip-rule="evenodd" d="M284.578 171.059H312.494V0.944008H284.578V171.059Z" fill="black"></path><path fill-rule="evenodd" clip-rule="evenodd" d="M594.719 78.9473C594.707 78.9143 594.695 78.8813 594.682 78.8493C593.554 75.8613 592.128 72.9333 590.311 70.1323C585.295 62.3583 577.674 56.6973 569.459 52.9043C566.895 51.7243 564.273 50.7143 561.65 49.8913C554.114 47.5063 545.238 46.9133 539.881 46.9633C539.881 46.9633 522.614 47.2783 509.271 55.7103L507.759 46.9603H482.389V97.6353V171.059V171.061H510.006H510.303V171.059H510.305V102.154C510.705 94.7613 511.881 86.8283 518.247 80.9453C524.214 75.4453 532.523 73.1033 539.694 73.1033H539.881H540.068C547.239 73.1033 555.548 75.4453 561.515 80.9453C567.888 86.8353 569.06 94.7793 569.459 102.18V171.061H569.756H597.373V94.2413C597.373 89.0283 596.553 83.8263 594.719 78.9473Z" fill="black"></path></g><defs><clipPath id="clip0_1_12"><rect width="598" height="172" fill="white"></rect></clipPath></defs></svg>