<svg id="hotel2" xmlns="http://www.w3.org/2000/svg" width="55.006" height="60.994" viewBox="0 0 55.006 60.994">
  <path id="Path_9" data-name="Path 9" d="M333.026,740.269a7.107,7.107,0,0,0-3.073-5.942.779.779,0,0,1-.332-.747c.006-3.117.017-6.232,0-9.349a5.733,5.733,0,0,0-3.949-5.455c-.307-.1-.656-.059-.93-.27H292.575c-.023.128-.134.118-.226.146a5.742,5.742,0,0,0-4.418,6.052q0,4.464,0,8.932a.668.668,0,0,1-.281.65,7.274,7.274,0,0,0-3.137,6.275q.007,8.754.008,17.509a2.773,2.773,0,0,0,.033.533.875.875,0,0,0,1.73-.022,4.308,4.308,0,0,0,.027-.653q0-8.637,0-17.27a5.9,5.9,0,0,1,.74-3.142,5.644,5.644,0,0,1,5.242-2.775q16.589.022,33.178.006a6.276,6.276,0,0,1,1.477.146,5.489,5.489,0,0,1,4.285,5.559c.015,1.668,0,3.335,0,5a1.085,1.085,0,0,0,.306.925.831.831,0,0,0,.937.156.981.981,0,0,0,.555-1.027C333.036,743.763,333.054,742.016,333.026,740.269Zm-5.187-7.573v.57a12.027,12.027,0,0,0-3.4-.316q-15.573.006-31.148,0a12.4,12.4,0,0,0-3.561.314c0-3.155-.063-6.271.023-9.383a3.835,3.835,0,0,1,3.96-3.581q10.6-.009,21.2,0,4.377,0,8.755,0a3.937,3.937,0,0,1,4.168,4.185Q327.846,728.587,327.839,732.7Z" transform="translate(-281.289 -718.507)" fill="#0d0c22"/>
  <path id="Path_10" data-name="Path 10" d="M336.782,768.4a4.257,4.257,0,0,0-2.614-3.566.827.827,0,0,1-.56-.931q.016-9.767.006-19.535c0-.932-.266-1.338-.881-1.355-.637-.017-.911.394-.911,1.374q0,9.649-.009,19.3c0,.227.081.474-.073.671H316.231v-.692c0-3.175.01-6.353,0-9.528a3.884,3.884,0,0,0-4.12-4.1q-2.679-.007-5.36,0a3.916,3.916,0,0,0-4.257,4.259q0,4.706,0,9.411a1.246,1.246,0,0,1-.067.66H286.9c0-2.452,0-4.833,0-7.216a4.068,4.068,0,0,0-.035-.711.792.792,0,0,0-.777-.692.807.807,0,0,0-.913.6,2.474,2.474,0,0,0-.07.705c0,2.343-.006,4.685.012,7.028a.636.636,0,0,1-.457.7,4.311,4.311,0,0,0-2.728,3.739,23.753,23.753,0,0,0-.034,2.8,2.761,2.761,0,0,0,.969,2.038,3.279,3.279,0,0,0,2.312.756q24.185-.013,48.369-.006c.139,0,.278,0,.416,0a2.861,2.861,0,0,0,2.828-2.551A13.523,13.523,0,0,0,336.782,768.4Zm-32.5-14.107a2.157,2.157,0,0,1,2.481-2.465c1.827,0,3.654,0,5.48,0a2.036,2.036,0,0,1,2.184,2.094c.031,3.415.011,6.829.007,10.243a.888.888,0,0,1-.05.194H304.356a1.026,1.026,0,0,1-.072-.6Q304.278,759.033,304.282,754.3Zm30.743,16.916c-.031.74-.506,1.1-1.343,1.1q-5.894.007-11.788,0H285.279c-1.286,0-1.611-.332-1.605-1.631,0-.515,0-1.031,0-1.548a2.723,2.723,0,0,1,2.935-2.935c3.274-.015,6.548-.006,9.822-.006H330.91c.534,0,1.072-.015,1.605.022A2.619,2.619,0,0,1,335,768.6,19.694,19.694,0,0,1,335.026,771.213Z" transform="translate(-281.871 -713.118)" fill="#0d0c22"/>
  <path id="Path_11" data-name="Path 11" d="M297.515,738.969a3,3,0,0,0-3.045-2.952c-.833-.027-1.668-.023-2.5,0a3.088,3.088,0,0,0-3.163,3.223c-.01.814,0,1.626,0,2.439,0,.853-.018,1.706,0,2.558a3.053,3.053,0,0,0,3.135,3.115q1.219.02,2.439,0a3,3,0,0,0,3.141-2.975C297.587,742.579,297.583,740.77,297.515,738.969Zm-1.769,5.137c-.018,1-.471,1.442-1.474,1.453-.754.009-1.509.011-2.263,0a1.261,1.261,0,0,1-1.4-1.343q-.037-2.529,0-5.06a1.262,1.262,0,0,1,1.353-1.346c.814-.027,1.63-.027,2.441,0a1.268,1.268,0,0,1,1.344,1.411c.02.832,0,1.665,0,2.5C295.749,742.519,295.76,743.313,295.746,744.106Z" transform="translate(-280.348 -714.661)" fill="#0d0c22"/>
  <path id="Path_12" data-name="Path 12" d="M321.58,739.257a3.083,3.083,0,0,0-3.2-3.242q-1.16-.026-2.32,0a3.082,3.082,0,0,0-3.211,3.23c-.012.811,0,1.624,0,2.437,0,.833-.015,1.665,0,2.5a3.049,3.049,0,0,0,3.195,3.17q1.16.015,2.32,0a3.069,3.069,0,0,0,3.216-3.217Q321.6,741.7,321.58,739.257Zm-1.794,4.943a1.261,1.261,0,0,1-1.388,1.358c-.792.015-1.586.016-2.378,0a1.241,1.241,0,0,1-1.369-1.368c-.022-.832,0-1.665,0-2.5h-.006c0-.811-.011-1.625,0-2.437a1.3,1.3,0,0,1,1.427-1.451c.773-.018,1.547-.011,2.32,0a1.378,1.378,0,0,1,1.4,1.4C319.777,740.869,319.806,742.534,319.785,744.2Z" transform="translate(-275.062 -714.66)" fill="#0d0c22"/>
  <path id="Path_13" data-name="Path 13" d="M309.559,739.125a3,3,0,0,0-2.8-3.071,18.954,18.954,0,0,0-3.09-.01,3.01,3.01,0,0,0-2.839,3.1c-.028,1.707-.03,3.412,0,5.117a3.056,3.056,0,0,0,3.207,3.1c.755.005,1.509,0,2.262,0a3.073,3.073,0,0,0,3.259-3.235c.01-.811,0-1.625,0-2.439C309.564,740.829,309.586,739.976,309.559,739.125Zm-1.782,1.75c0,.237,0,.473,0,.709,0,.035,0,.07,0,.1,0,.433,0,.864,0,1.3v.03c0,.2,0,.412,0,.617,0,.146,0,.292,0,.438a1.309,1.309,0,0,1-1.5,1.492c-.756.005-1.51.006-2.264-.006a1.232,1.232,0,0,1-1.38-1.3q-.042-2.56,0-5.12a1.243,1.243,0,0,1,1.313-1.322c.832-.034,1.668-.034,2.5,0a1.265,1.265,0,0,1,1.326,1.371c.009.328.012.654.012.982Q307.78,740.522,307.777,740.875Z" transform="translate(-277.707 -714.664)" fill="#0d0c22"/>
  <path id="Path_14" data-name="Path 14" d="M297.531,751.826a3.029,3.029,0,0,0-3.195-3.049c-.773,0-1.548,0-2.322,0A3.075,3.075,0,0,0,288.8,752c0,.815,0,1.628,0,2.441h0c0,.853-.018,1.706,0,2.558a3.052,3.052,0,0,0,3.141,3.106q1.222.015,2.441,0a3,3,0,0,0,3.129-2.983C297.582,755.356,297.584,753.589,297.531,751.826Zm-1.782,2.618c0,.793.009,1.585,0,2.377-.015,1.028-.476,1.487-1.491,1.494-.772,0-1.546.009-2.316-.007a1.235,1.235,0,0,1-1.332-1.287q-.042-2.583,0-5.168a1.242,1.242,0,0,1,1.338-1.285c.811-.015,1.625-.012,2.436,0a1.252,1.252,0,0,1,1.359,1.321c.027.851.006,1.7.006,2.555Z" transform="translate(-280.348 -711.852)" fill="#0d0c22"/>
  <path id="Path_15" data-name="Path 15" d="M321.576,751.9a3.065,3.065,0,0,0-3.188-3.125c-.755-.006-1.509,0-2.262,0a3.072,3.072,0,0,0-3.279,3.269c-.01.792,0,1.586,0,2.379h.037c0,.989-.067,1.986.015,2.97a2.957,2.957,0,0,0,2.9,2.7c.871.029,1.744.017,2.617.006a3.052,3.052,0,0,0,3.16-3.148Q321.614,754.427,321.576,751.9Zm-1.8,5.037a1.263,1.263,0,0,1-1.375,1.375q-1.191.018-2.382,0a1.257,1.257,0,0,1-1.377-1.366c-.022-.853-.005-1.705-.005-2.56h.005c0-.772-.009-1.548,0-2.32.013-1.037.47-1.492,1.491-1.5.736,0,1.469-.007,2.2,0a1.28,1.28,0,0,1,1.443,1.369Q319.816,754.434,319.78,756.937Z" transform="translate(-275.061 -711.853)" fill="#0d0c22"/>
  <path id="Path_16" data-name="Path 16" d="M301.217,721.681a4.273,4.273,0,1,0,0,8.546,4.273,4.273,0,0,0,0-8.546Zm0,6.757a2.48,2.48,0,1,1-.061-4.959,2.48,2.48,0,1,1,.061,4.959Z" transform="translate(-278.565 -717.809)" fill="#0d0c22"/>
  <path id="Path_17" data-name="Path 17" d="M297.254,729.119c0,.7-.329,1.1-.886,1.106s-.9-.367-.9-1.076c-.01-.787,0-1.575,0-2.387H292.55c0,.822.009,1.646,0,2.47-.01.611-.3.95-.8.989a.858.858,0,0,1-.97-.889q-.037-3.359-.009-6.721a.892.892,0,1,1,1.781.039c.016.748,0,1.5,0,2.272h2.915c0-.7,0-1.405,0-2.11s.3-1.105.855-1.121c.578-.018.93.394.931,1.121Q297.263,725.965,297.254,729.119Z" transform="translate(-279.918 -717.809)" fill="#0d0c22"/>
  <path id="Path_18" data-name="Path 18" d="M314.316,729.343c0,.536-.392.867-1.048.875-.832.009-1.666.011-2.5,0-.738-.006-1.069-.317-1.072-1.039q-.015-3.209,0-6.422a.912.912,0,0,1,1.03-1.026c.853-.013,1.705-.012,2.558,0,.637.009,1.037.37,1.032.9s-.406.873-1.048.883c-.555.009-1.11.009-1.665.013a.38.38,0,0,0-.088.034v1.516c.506,0,1.014-.006,1.521,0,.686.011,1.078.36,1.062.927-.016.548-.387.853-1.058.861-.476.009-.951.009-1.427.011a.6.6,0,0,0-.093.036v1.507c.615,0,1.189-.012,1.763.005C313.929,728.449,314.321,728.809,314.316,729.343Z" transform="translate(-275.755 -717.8)" fill="#0d0c22"/>
  <path id="Path_19" data-name="Path 19" d="M309.6,722.515a.811.811,0,0,1-.736.922,11.211,11.211,0,0,1-1.131.076v1.238q0,2.084,0,4.164c0,.919-.282,1.322-.909,1.309-.6-.013-.881-.421-.881-1.289q0-2.408,0-4.817V723.5c-.427-.022-.767-.012-1.1-.065a.806.806,0,0,1-.734-.919.77.77,0,0,1,.784-.811q1.962-.044,3.924,0A.776.776,0,0,1,309.6,722.515Z" transform="translate(-276.983 -717.808)" fill="#0d0c22"/>
  <path id="Path_20" data-name="Path 20" d="M318.795,729.317c.015.531-.388.9-1.026.907-.715.011-1.43.011-2.142-.006-.679-.018-.978-.316-.982-.992q-.011-3.272,0-6.546a.872.872,0,0,1,.865-.992.912.912,0,0,1,.921,1.015c.011,1.726,0,3.452,0,5.177v.556c.473,0,.886-.006,1.3,0C318.368,728.452,318.782,728.8,318.795,729.317Z" transform="translate(-274.666 -717.807)" fill="#0d0c22"/>
</svg>
