<svg id="receipt-disscount" xmlns="http://www.w3.org/2000/svg" width="41.501" height="41.501" viewBox="0 0 41.501 41.501">
  <g id="vuesax_outline_receipt-disscount" data-name="vuesax/outline/receipt-disscount">
    <g id="receipt-disscount-2" data-name="receipt-disscount">
      <path id="Vector" d="M16,37.178a4.431,4.431,0,0,1-3.562-1.919l-1.746-2.334a1.869,1.869,0,0,0-1.366-.8,1.875,1.875,0,0,0-1.453.64L6.882,31.9l.951.882c-2.507,2.663-4.409,2.455-5.326,2.092C1.574,34.515,0,33.322,0,29.483V10.012C0,2.334,2.213,0,9.459,0H22.514c7.245,0,9.459,2.334,9.459,10.012V29.483c0,3.822-1.574,5.015-2.507,5.4-.916.363-2.819.571-5.326-2.092a1.853,1.853,0,0,0-1.47-.64,1.9,1.9,0,0,0-1.383.8L19.54,35.276A4.4,4.4,0,0,1,16,37.178ZM9.217,29.535h.225a4.46,4.46,0,0,1,3.3,1.833L14.508,33.7a1.748,1.748,0,0,0,2.992,0l1.746-2.334A4.346,4.346,0,0,1,26.059,31c1.314,1.4,2.161,1.574,2.473,1.453.415-.173.865-1.176.865-2.974V10.012c0-6.242-1.089-7.418-6.865-7.418H9.459c-5.776,0-6.865,1.176-6.865,7.418V29.483c0,1.816.45,2.819.865,2.974.311.121,1.159-.052,2.473-1.453A4.524,4.524,0,0,1,9.217,29.535Z" transform="translate(4.755 2.161)" fill="gray"/>
      <path id="Vector-2" data-name="Vector" d="M1.729,3.458A1.729,1.729,0,1,1,3.458,1.729,1.723,1.723,0,0,1,1.729,3.458Z" transform="translate(24.209 20.75)" fill="gray"/>
      <path id="Vector-3" data-name="Vector" d="M1.729,3.458A1.729,1.729,0,1,1,3.458,1.729,1.723,1.723,0,0,1,1.729,3.458Z" transform="translate(13.834 12.104)" fill="gray"/>
      <path id="Vector-4" data-name="Vector" d="M1.293,14.227a1.283,1.283,0,0,1-.916-.38,1.3,1.3,0,0,1,0-1.833L12.014.376a1.3,1.3,0,0,1,1.833,1.833L2.209,13.847A1.227,1.227,0,0,1,1.293,14.227Z" transform="translate(13.63 10.933)" fill="gray"/>
      <path id="Vector-5" data-name="Vector" d="M0,0H41.5V41.5H0Z" fill="none" opacity="0"/>
    </g>
  </g>
</svg>
