<svg id="home-2" xmlns="http://www.w3.org/2000/svg" width="41.501" height="41.501" viewBox="0 0 41.501 41.501">
  <g id="vuesax_outline_home-2" data-name="vuesax/outline/home-2">
    <g id="home-2-2" data-name="home-2">
      <path id="Vector" d="M28.6,37.137H8.577A8.59,8.59,0,0,1,0,28.543V15.73A9.513,9.513,0,0,1,3.32,8.969l9.32-7.263a8.989,8.989,0,0,1,10.185-.242L33.512,8.951a9.446,9.446,0,0,1,3.666,7.021V28.56A8.586,8.586,0,0,1,28.6,37.137ZM14.231,3.746l-9.32,7.263A7.027,7.027,0,0,0,2.594,15.73V28.543a6,6,0,0,0,5.983,6H28.6a5.985,5.985,0,0,0,5.983-5.983V15.972a6.861,6.861,0,0,0-2.559-4.894L21.338,3.591A6.436,6.436,0,0,0,14.231,3.746Z" transform="translate(2.161 2.202)" fill="#b479c7"/>
      <path id="Vector-2" data-name="Vector" d="M1.3,7.781A1.306,1.306,0,0,1,0,6.484V1.3A1.306,1.306,0,0,1,1.3,0a1.306,1.306,0,0,1,1.3,1.3V6.484A1.306,1.306,0,0,1,1.3,7.781Z" transform="translate(19.453 24.641)" fill="#b479c7"/>
      <path id="Vector-3" data-name="Vector" d="M0,0H41.5V41.5H0Z" fill="none" opacity="0"/>
    </g>
  </g>
</svg>
