<svg id="shopping-bag" xmlns="http://www.w3.org/2000/svg" width="41.501" height="41.501" viewBox="0 0 41.501 41.501">
  <g id="vuesax_outline_shopping-bag" data-name="vuesax/outline/shopping-bag">
    <g id="shopping-bag-2" data-name="shopping-bag">
      <path id="Vector" d="M23.8,29.4H8.255c-2.974,0-5.2-.8-6.588-2.369S-.253,23.171.11,20.214L1.667,7.245C2.116,3.424,3.085,0,9.829,0h12.45c6.727,0,7.695,3.424,8.162,7.245L32,20.214c.346,2.957-.173,5.257-1.556,6.813C29.005,28.6,26.792,29.4,23.8,29.4ZM9.811,2.594c-4.98,0-5.222,1.971-5.585,4.945L2.67,20.508c-.259,2.2.052,3.8.934,4.79s2.438,1.487,4.652,1.487H23.8c2.213,0,3.77-.5,4.652-1.487s1.193-2.594.934-4.79L27.829,7.539c-.363-2.992-.588-4.945-5.585-4.945Z" transform="translate(4.714 9.943)" fill="#b479c7"/>
      <path id="Vector-2" data-name="Vector" d="M15.13,12.969a1.306,1.306,0,0,1-1.3-1.3V5.62a2.807,2.807,0,0,0-3.026-3.026H5.62A2.807,2.807,0,0,0,2.594,5.62v6.052a1.306,1.306,0,0,1-1.3,1.3,1.306,1.306,0,0,1-1.3-1.3V5.62A5.384,5.384,0,0,1,5.62,0h5.188a5.384,5.384,0,0,1,5.62,5.62v6.052A1.306,1.306,0,0,1,15.13,12.969Z" transform="translate(12.537 2.161)" fill="#b479c7"/>
      <path id="Vector-3" data-name="Vector" d="M22.756,2.594H1.3A1.306,1.306,0,0,1,0,1.3,1.306,1.306,0,0,1,1.3,0H22.756a1.306,1.306,0,0,1,1.3,1.3A1.306,1.306,0,0,1,22.756,2.594Z" transform="translate(12.537 28.151)" fill="#b479c7"/>
      <path id="Vector-4" data-name="Vector" d="M0,0H41.5V41.5H0Z" fill="none" opacity="0"/>
    </g>
  </g>
</svg>
