<svg id="_24-support" data-name="24-support" xmlns="http://www.w3.org/2000/svg" width="41.501" height="41.501" viewBox="0 0 41.501 41.501">
  <g id="vuesax_outline_24-support" data-name="vuesax/outline/24-support">
    <g id="_24-support-2" data-name="24-support">
      <path id="Vector" d="M16.86,37.16a4.754,4.754,0,0,1-3.355-1.383l-2.957-2.922A3.9,3.9,0,0,0,7.8,31.731H6.484A6.465,6.465,0,0,1,0,25.3V6.433A6.465,6.465,0,0,1,6.484,0h20.75a6.465,6.465,0,0,1,6.484,6.433V25.3a6.465,6.465,0,0,1-6.484,6.433H25.921a3.871,3.871,0,0,0-2.749,1.124l-2.957,2.922A4.754,4.754,0,0,1,16.86,37.16ZM6.484,2.576A3.875,3.875,0,0,0,2.594,6.415V25.281A3.864,3.864,0,0,0,6.484,29.12H7.8A6.492,6.492,0,0,1,12.381,31l2.957,2.922a2.192,2.192,0,0,0,3.061,0L21.356,31a6.492,6.492,0,0,1,4.582-1.885h1.3a3.875,3.875,0,0,0,3.891-3.839V6.415a3.864,3.864,0,0,0-3.891-3.839Z" transform="translate(3.891 2.179)" fill="#b479c7"/>
      <path id="Vector-2" data-name="Vector" d="M7.159,13.488H2.525A2.36,2.36,0,0,1,.605,12.5,2.246,2.246,0,0,1,.277,10.5c.605-1.85,2.092-2.853,3.407-3.752C5.067,5.81,5.845,5.222,5.845,4.219a1.625,1.625,0,1,0-3.251,0,1.306,1.306,0,0,1-1.3,1.3A1.306,1.306,0,0,1,0,4.219a4.219,4.219,0,1,1,8.438,0c0,2.438-1.833,3.683-3.3,4.686a6.772,6.772,0,0,0-2.213,1.989H7.142a1.306,1.306,0,0,1,1.3,1.3A1.292,1.292,0,0,1,7.159,13.488Z" transform="translate(10.791 11.603)" fill="#b479c7"/>
      <path id="Vector-3" data-name="Vector" d="M7.085,13.471a1.306,1.306,0,0,1-1.3-1.3V10.981H2.382A2.4,2.4,0,0,1,.324,9.8a2.357,2.357,0,0,1,0-2.386C1.5,5.4,2.866,3.1,4.111,1.09A2.3,2.3,0,0,1,8.365,2.318V8.4h.38a1.3,1.3,0,0,1,0,2.594H8.382v1.193A1.281,1.281,0,0,1,7.085,13.471ZM5.788,3.32C4.768,4.98,3.713,6.761,2.762,8.387H5.788Z" transform="translate(20.651 11.62)" fill="#b479c7"/>
      <path id="Vector-4" data-name="Vector" d="M0,0H41.5V41.5H0Z" fill="none" opacity="0"/>
    </g>
  </g>
</svg>
