<svg id="element-3" xmlns="http://www.w3.org/2000/svg" width="41.501" height="41.501" viewBox="0 0 41.501 41.501">
  <g id="vuesax_outline_element-3" data-name="vuesax/outline/element-3">
    <g id="element-3-2" data-name="element-3">
      <path id="Vector" d="M12.139,17.292H5.153C1.677,17.292,0,15.753,0,12.571V4.721C0,1.539,1.695,0,5.153,0h6.986c3.476,0,5.153,1.539,5.153,4.721v7.833C17.292,15.753,15.6,17.292,12.139,17.292ZM5.153,2.594c-2.317,0-2.559.657-2.559,2.127v7.833c0,1.487.242,2.127,2.559,2.127h6.986c2.317,0,2.559-.657,2.559-2.127V4.721c0-1.487-.242-2.127-2.559-2.127Z" transform="translate(22.047 2.161)" fill="gray"/>
      <path id="Vector-2" data-name="Vector" d="M12.139,17.292H5.153C1.677,17.292,0,15.6,0,12.139V5.153C0,1.677,1.695,0,5.153,0h6.986c3.476,0,5.153,1.695,5.153,5.153v6.986C17.292,15.6,15.6,17.292,12.139,17.292ZM5.153,2.594c-2.04,0-2.559.519-2.559,2.559v6.986c0,2.04.519,2.559,2.559,2.559h6.986c2.04,0,2.559-.519,2.559-2.559V5.153c0-2.04-.519-2.559-2.559-2.559Z" transform="translate(22.047 22.047)" fill="gray"/>
      <path id="Vector-3" data-name="Vector" d="M12.139,17.292H5.153C1.677,17.292,0,15.753,0,12.571V4.721C0,1.539,1.695,0,5.153,0h6.986c3.476,0,5.153,1.539,5.153,4.721v7.833C17.292,15.753,15.6,17.292,12.139,17.292ZM5.153,2.594c-2.317,0-2.559.657-2.559,2.127v7.833c0,1.487.242,2.127,2.559,2.127h6.986c2.317,0,2.559-.657,2.559-2.127V4.721c0-1.487-.242-2.127-2.559-2.127Z" transform="translate(2.161 2.161)" fill="gray"/>
      <path id="Vector-4" data-name="Vector" d="M12.139,17.292H5.153C1.677,17.292,0,15.6,0,12.139V5.153C0,1.677,1.695,0,5.153,0h6.986c3.476,0,5.153,1.695,5.153,5.153v6.986C17.292,15.6,15.6,17.292,12.139,17.292ZM5.153,2.594c-2.04,0-2.559.519-2.559,2.559v6.986c0,2.04.519,2.559,2.559,2.559h6.986c2.04,0,2.559-.519,2.559-2.559V5.153c0-2.04-.519-2.559-2.559-2.559Z" transform="translate(2.161 22.047)" fill="gray"/>
      <path id="Vector-5" data-name="Vector" d="M0,0H41.5V41.5H0Z" fill="none" opacity="0"/>
    </g>
  </g>
</svg>
