<svg id="info" xmlns="http://www.w3.org/2000/svg" width="32.117" height="32.117" viewBox="0 0 32.117 32.117">
  <g id="Group_2260" data-name="Group 2260" transform="translate(11.417 3.764)">
    <path id="Path_1289" data-name="Path 1289" d="M190.469,195.055h-7.527a.941.941,0,0,1-.941-.941V190.35a.941.941,0,0,1,.941-.941h.941v-3.764h-.941A.941.941,0,0,1,182,184.7v-3.764a.941.941,0,0,1,.941-.941h5.646a.941.941,0,0,1,.941.941v8.468h.941a.941.941,0,0,1,.941.941v3.764A.941.941,0,0,1,190.469,195.055Zm-6.587-1.882h5.646v-1.882h-.941a.941.941,0,0,1-.941-.941v-8.468h-3.764v1.882h.941a.941.941,0,0,1,.941.941v5.646a.941.941,0,0,1-.941.941h-.941Z" transform="translate(-182.001 -172.473)" fill="#52bece"/>
    <path id="Path_1290" data-name="Path 1290" d="M214.824,65.646a2.823,2.823,0,1,1,2.823-2.823A2.826,2.826,0,0,1,214.824,65.646Zm0-3.764a.941.941,0,1,0,.941.941A.942.942,0,0,0,214.824,61.882Z" transform="translate(-210.119 -60)" fill="#52bece"/>
  </g>
  <path id="Path_1291" data-name="Path 1291" d="M.941,32.117a.941.941,0,0,1-.874-1.29L2.51,24.719A16.384,16.384,0,0,1,0,16,15.811,15.811,0,0,1,4.752,4.681,16.08,16.08,0,0,1,16.121,0a16,16,0,0,1,16,16,16.08,16.08,0,0,1-4.681,11.37,15.811,15.811,0,0,1-11.315,4.752A16.383,16.383,0,0,1,7.4,29.607L1.29,32.05A.94.94,0,0,1,.941,32.117Zm6.564-4.508a.941.941,0,0,1,.532.164,14.435,14.435,0,0,0,8.084,2.461A14.177,14.177,0,1,0,1.882,16,14.435,14.435,0,0,0,4.343,24.08a.941.941,0,0,1,.1.881L2.63,29.487l4.526-1.81A.942.942,0,0,1,7.505,27.609Z" transform="translate(0 0)" fill="#52bece"/>
</svg>
