<svg xmlns="http://www.w3.org/2000/svg" xmlns:xlink="http://www.w3.org/1999/xlink" width="213.788" height="60" viewBox="0 0 213.788 60">
  <defs>
    <linearGradient id="linear-gradient" y1="0.5" x2="1" y2="0.5" gradientUnits="objectBoundingBox">
      <stop offset="0" stop-color="#19b4cb"/>
      <stop offset="1" stop-color="#e30572"/>
    </linearGradient>
  </defs>
  <g id="Group_9441" data-name="Group 9441" transform="translate(-228.476 -222.832)">
    <g id="Group_8009" data-name="Group 8009" transform="translate(228.476 222.832)">
      <path id="Path_7089" data-name="Path 7089" d="M432.68,251.027l.091-.106.014-.015a16.728,16.728,0,0,0-11.317-27.735l6.867-7.311-5.2-4.427h-7.283l-5.224,4.425,6.978,7.462a16.781,16.781,0,0,0-14.161,16.553,16.586,16.586,0,0,0,3.531,10.266l3.219-2.5a12.543,12.543,0,0,1-2.673-7.763,12.677,12.677,0,1,1,22.155,8.382l-16.258,15.882L394.217,242.6l-3.044,2.714,22.047,24.726,19.327-18.882Zm-10.891-35.14-2.325,6.35-2.324-6.35Zm-4.472-1.224,1.142-2.007h1.826l1.27,2.007Zm3.515,7.4,2.26-6.174h3.389l.084.072Zm4.212-7.4H423l-1.269-2.007h.955Zm-8.739-2.007h.746l-1.141,2.007h-1.975Zm-3.815,3.231h3.348l2.255,6.16-5.69-6.087Z" transform="translate(-376.306 -211.433)" fill="url(#linear-gradient)"/>
      <path id="Path_7090" data-name="Path 7090" d="M384.945,277.328,369.89,260.891a12.8,12.8,0,0,1,.965-18.051,12.786,12.786,0,0,1,17,.214l2.773-2.99a16.9,16.9,0,0,0-22.472-.282,16.875,16.875,0,0,0-1.275,23.863l17.8,19.428,6.935-6.288-2.738-3.022Z" transform="translate(-362.541 -223.074)" fill="url(#linear-gradient)"/>
    </g>
    <g id="Group_8010" data-name="Group 8010" transform="translate(303.042 242.751)">
      <path id="Path_7091" data-name="Path 7091" d="M314.943,345.96a1.854,1.854,0,0,0-.7.811l-6.912,14.936-6.525-14.927a1.815,1.815,0,0,0-.693-.827,1.9,1.9,0,0,0-1.046-.305h-1.187l3.892,8.911-3.249,7.15L292,346.779a1.814,1.814,0,0,0-.693-.827,1.889,1.889,0,0,0-1.047-.306h-1.187l8.558,19.591h.758l.039.572.078-.572h.909l3.4-7.46a3.759,3.759,0,0,0,.168-.474l3.46,7.934h1.783l8.968-19.591H316A1.888,1.888,0,0,0,314.943,345.96Z" transform="translate(-289.076 -345.647)" fill="#1fafc8"/>
      <path id="Path_7092" data-name="Path 7092" d="M346.654,365.238h11.91V363h-9.67V356.47h7.826v-2.24h-7.826v-6.342h9.67v-2.24h-11.91Z" transform="translate(-316.26 -345.647)" fill="#1fafc8"/>
      <path id="Path_7093" data-name="Path 7093" d="M392.124,350.505h0a10.012,10.012,0,0,0-3.519-3.518,9.689,9.689,0,0,0-4.943-1.34h-7.282v19.591h7.282a9.706,9.706,0,0,0,2.6-.349,9.761,9.761,0,0,0,4.32-2.515,10.036,10.036,0,0,0,1.537-1.981,9.754,9.754,0,0,0,0-9.888Zm-13.5-2.618h5.042a7.38,7.38,0,0,1,2.942.592,7.609,7.609,0,0,1,4.026,4.034,7.559,7.559,0,0,1,0,5.871h0a7.592,7.592,0,0,1-1.623,2.4,7.748,7.748,0,0,1-2.4,1.617,7.365,7.365,0,0,1-2.942.592h-5.042Z" transform="translate(-330.294 -345.647)" fill="#1fafc8"/>
      <path id="Path_7094" data-name="Path 7094" d="M431.275,350.506a10,10,0,0,0-3.518-3.518,9.689,9.689,0,0,0-4.943-1.34h-7.281v19.591h7.281a9.708,9.708,0,0,0,2.605-.349,9.761,9.761,0,0,0,4.32-2.515,10.036,10.036,0,0,0,1.537-1.981,9.752,9.752,0,0,0,0-9.887Zm-13.5-2.618h5.041a7.38,7.38,0,0,1,2.942.592,7.608,7.608,0,0,1,4.027,4.034,7.558,7.558,0,0,1,0,5.871h0a7.593,7.593,0,0,1-1.623,2.4,7.745,7.745,0,0,1-2.4,1.617,7.366,7.366,0,0,1-2.942.592h-5.041Z" transform="translate(-348.779 -345.647)" fill="#1fafc8"/>
      <path id="Path_7095" data-name="Path 7095" d="M467.737,351.735a7.5,7.5,0,0,1,1.213-1.57,8.119,8.119,0,0,1,1.575-1.217,7.662,7.662,0,0,1,1.853-.786,7.9,7.9,0,0,1,4.427.089,8.048,8.048,0,0,1,2.061,1.017,1.887,1.887,0,0,0,1.775.167,2.046,2.046,0,0,0,.615-.429l.364-.327-.224-.217a10.128,10.128,0,0,0-3.133-2.069,10.1,10.1,0,0,0-7.717.041,10.25,10.25,0,0,0-3.18,2.143,10.1,10.1,0,0,0-2.152,3.183,10.089,10.089,0,0,0-.051,7.684.936.936,0,0,0-.316.256c-.1.129-.218.279-.344.442-.707.922-1.776,2.316-2.667,2.547a1.073,1.073,0,0,1-.909-.126c-.973-.647-1.306-2.922-1.527-4.428a11.53,11.53,0,0,0-.244-1.357.973.973,0,0,0-.7-.659.92.92,0,0,0-.878.241,18.383,18.383,0,0,0-2.628,3.634,26.174,26.174,0,0,1-1.64,2.5c-.1.122-.182.253-.26.376-.037.059-.084.131-.129.194a18.011,18.011,0,0,1,.2-2.062c.073-.968.2-1.988.414-3.286a.831.831,0,0,0,.38-.249.818.818,0,0,0,.181-.641c-.023-.241-.049-.478-.076-.716s-.052-.47-.075-.714a1.064,1.064,0,0,0-1-.906.855.855,0,0,0-.882.7,53.863,53.863,0,0,0-.935,6.967l-.018.235c-.074.914-.212,2.616,1.156,2.933,1.116.267,1.977-.9,2.489-1.6l.105-.143a27.023,27.023,0,0,0,1.618-2.478c.377-.627.764-1.27,1.189-1.882l.013.1c.3,2.189.662,4.914,2.946,5.422,2.22.5,4.243-2.041,5.452-3.56l.008-.01a9.761,9.761,0,0,0,1.276,1.576,10.232,10.232,0,0,0,3.18,2.143,9.748,9.748,0,0,0,3.9.787c.658,0,1.318-.03,1.963-.088a11.584,11.584,0,0,0,1.89-.327,8.9,8.9,0,0,0,1.729-.644,6.546,6.546,0,0,0,1.5-1.034l.094-.087v-7.741h-5.489v.344a1.971,1.971,0,0,0,.132.715,1.827,1.827,0,0,0,.968,1.023,1.882,1.882,0,0,0,.783.158h1.394v4.111a9.04,9.04,0,0,1-2.229.976,8.866,8.866,0,0,1-4.665.079,7.927,7.927,0,0,1-1.888-.787,8.2,8.2,0,0,1-1.608-1.217,7.808,7.808,0,0,1-2.059-3.434,7.352,7.352,0,0,1-.288-2.061,7.518,7.518,0,0,1,.281-2.062A8.1,8.1,0,0,1,467.737,351.735Z" transform="translate(-365.557 -345.647)" fill="#1fafc8"/>
      <path id="Path_7096" data-name="Path 7096" d="M534.115,351.759a10.032,10.032,0,0,0-5.325-5.325,10.052,10.052,0,0,0-7.8,0,10.274,10.274,0,0,0-3.181,2.143,10.076,10.076,0,0,0-2.151,3.183,10.065,10.065,0,0,0,0,7.8,10.069,10.069,0,0,0,2.151,3.182,10.252,10.252,0,0,0,3.181,2.143,10.053,10.053,0,0,0,7.8,0,10.033,10.033,0,0,0,5.325-5.325,10.07,10.07,0,0,0,0-7.8Zm-11.292,11.4a7.616,7.616,0,0,1-1.853-.786,8.12,8.12,0,0,1-1.575-1.216,7.563,7.563,0,0,1-1.213-1.571,8.094,8.094,0,0,1-.788-1.863,7.727,7.727,0,0,1,0-4.125,8.1,8.1,0,0,1,.788-1.864,7.547,7.547,0,0,1,1.213-1.57,8.149,8.149,0,0,1,1.575-1.217,7.64,7.64,0,0,1,3.917-1.06,7.542,7.542,0,0,1,3.021.612,7.85,7.85,0,0,1,4.14,4.141,7.541,7.541,0,0,1,.613,3.021,7.682,7.682,0,0,1-1.061,3.924,7.788,7.788,0,0,1-2.789,2.789,7.722,7.722,0,0,1-1.86.786A7.952,7.952,0,0,1,522.822,363.161Z" transform="translate(-395.679 -345.647)" fill="#1fafc8"/>
    </g>
  </g>
</svg>
