<svg id="make_up2" data-name="make up2" xmlns="http://www.w3.org/2000/svg" width="60.6" height="52.13" viewBox="0 0 60.6 52.13">
  <g id="Group_17" data-name="Group 17" transform="translate(0 11.064)">
    <path id="Path_5" data-name="Path 5" d="M184.866,753.781a1.3,1.3,0,0,1-.883-1.343c.012-.82.012-1.628.012-2.449l-.012-.945c0-.646-.224-.87-.423-.982a1.446,1.446,0,0,1-.758-1.4v-2.809c0-1.33,0-2.66.012-3.99a1.329,1.329,0,0,0-.907-1.4l-.323-.149c-1.865-.833-3.791-1.691-5.631-2.635a1.328,1.328,0,0,0-1.305-.05,1.356,1.356,0,0,0-.535,1.231c.062,2.126.05,4.288.037,6.377,0,1.119-.012,2.238,0,3.356a1.563,1.563,0,0,1-.7,1.4,1.185,1.185,0,0,0-.51,1.156c.012.883.012,1.765.012,2.635l-.012,1.641-.5.186a3.662,3.662,0,0,0-2.449,2.25,1.492,1.492,0,0,1-.186.547v17.13a1.175,1.175,0,0,1,.149.472,3.379,3.379,0,0,0,3.294,2.436c4.028.037,7.334.037,10.417,0a3.4,3.4,0,0,0,3.431-3.493q.019-7.962,0-15.9A3.265,3.265,0,0,0,184.866,753.781Zm-8.6-15.625,3.754,1.728a1.11,1.11,0,0,1,.7,1.057v6.874h-4.45Zm-1.181,11.809h6.787v3.543h-6.787Zm9.932,22.723c0,1.169-.5,1.666-1.653,1.666h-9.771c-1.181,0-1.691-.51-1.691-1.7v-15.29c0-1.255.472-1.728,1.728-1.728q4.885,0,9.771.012c1.131,0,1.616.485,1.616,1.641Z" transform="translate(-169.812 -735.472)" fill="#0d0c22"/>
  </g>
  <g id="Group_18" data-name="Group 18" transform="translate(37.473)">
    <path id="Path_6" data-name="Path 6" d="M221.344,731.481a12.056,12.056,0,0,0-9.808-4.91,12.392,12.392,0,0,0-5.395,1.231c-4,1.952-7.6,6.228-5.631,12.418,1.231,3.9,2.623,7.844,4.239,12.045a3.489,3.489,0,0,1,.236,1.28v12.866c-.012,2.3-.012,4.612,0,6.912a5.256,5.256,0,0,0,3.456,4.91,10.066,10.066,0,0,0,5.457.186,5.148,5.148,0,0,0,4.139-5.407q.019-9.621,0-19.243a4.583,4.583,0,0,1,.311-1.691c1.467-3.791,3-7.881,4.251-12.157A9.221,9.221,0,0,0,221.344,731.481Zm-5.395,41.544a3.254,3.254,0,0,1-3.481,3.493c-.4,0-.8.013-1.206.013-.273,0-.547,0-.82-.013a3.26,3.26,0,0,1-3.369-3.431v-12.94h8.876Zm-8.838-15.016v-4.251h8.813v4.251Zm13.624-19.218c-1.106,4.077-2.623,8.068-4.09,11.921a1.245,1.245,0,0,1-1.256.92H206.75l-.186-.5c-1.144-2.934-2.051-5.37-2.834-7.695-.584-1.728-1.044-3.257-1.43-4.686a6.973,6.973,0,0,1,1.852-6.974,10.251,10.251,0,0,1,14.656-.075A7.015,7.015,0,0,1,220.735,738.791Z" transform="translate(-199.957 -726.571)" fill="#0d0c22"/>
  </g>
  <g id="Group_19" data-name="Group 19" transform="translate(21.31 2.186)">
    <path id="Path_7" data-name="Path 7" d="M201.993,759.98a3.775,3.775,0,0,0-3.829-3.791q-.6-.018-1.193,0h-1.392v-7.1h2.213c.746-.012,1.243-.422,1.243-1.044a.924.924,0,0,0-.311-.721,1.522,1.522,0,0,0-.97-.336h-2.188v-4.127h1.293c.336,0,.684.012,1.019,0a1.23,1.23,0,0,0,.883-.348.966.966,0,0,0,.273-.7,1.091,1.091,0,0,0-1.144-1.044h-2.325V736.66h1.318c.36,0,.721.013,1.081-.012a1.074,1.074,0,0,0,1.069-1.057,1.06,1.06,0,0,0-1.131-1.019h-2.362l-.012-1.218c0-.323,0-.622.012-.92a3.022,3.022,0,0,0-.012-.336,3.97,3.97,0,0,1,.1-1.106l.162-.559h1.081c.348,0,.684,0,1.019-.013a1.059,1.059,0,0,0,1.144-1.031,1.014,1.014,0,0,0-.286-.721,1.222,1.222,0,0,0-.883-.323c-2.238-.025-4.475-.012-6.725,0a1.06,1.06,0,0,0-1.193,1.019c-.012.622.472,1.044,1.218,1.057.336.013.684.013,1.019.013h1.231v4.14h-2.25c-.584,0-1.218.273-1.218,1.032a1.106,1.106,0,0,0,1.231,1.057H193.4v4.115h-2.312a1.24,1.24,0,0,0-.87.36.928.928,0,0,0-.273.708,1.072,1.072,0,0,0,1.144,1.02c.348.012.7,0,1.057,0h1.293v4.127h-2.325a1.1,1.1,0,0,0-1.181,1.057,1.064,1.064,0,0,0,1.181,1.032c.36.012.709.012,1.069,0h1.243v7.11h-2.6A3.725,3.725,0,0,0,187,759.843c-.062,4.8-.062,9.708,0,14.606a3.69,3.69,0,0,0,3.729,3.717c2.436.062,4.96.062,7.483,0a3.762,3.762,0,0,0,3.779-3.816C202.018,769.477,202.018,764.642,201.993,759.98ZM199.9,774.039a1.794,1.794,0,0,1-2.039,2.051c-1.131,0-2.262.013-3.394.013s-2.262-.013-3.406-.013a1.785,1.785,0,0,1-2-2.026c-.012-4.6-.012-9.186,0-13.786a1.766,1.766,0,0,1,2.014-2h6.849a1.757,1.757,0,0,1,1.977,1.977l.012,8.639Z" transform="translate(-186.954 -728.329)" fill="#0d0c22"/>
  </g>
</svg>
