<svg id="mobile" xmlns="http://www.w3.org/2000/svg" width="44.98" height="44.98" viewBox="0 0 44.98 44.98">
  <path id="Vector" d="M22.022,40.295H10.777C2.511,40.295,0,37.783,0,29.518V10.777C0,2.511,2.511,0,10.777,0H22.022C30.287,0,32.8,2.511,32.8,10.777V29.518C32.8,37.783,30.287,40.295,22.022,40.295ZM10.777,2.811c-6.71,0-7.965,1.274-7.965,7.965V29.518c0,6.691,1.256,7.965,7.965,7.965H22.022c6.71,0,7.965-1.274,7.965-7.965V10.777c0-6.691-1.256-7.965-7.965-7.965Z" transform="translate(6.091 2.343)" fill="#e24291"/>
  <path id="Vector-2" data-name="Vector" d="M8.9,2.811h-7.5A1.416,1.416,0,0,1,0,1.406,1.416,1.416,0,0,1,1.406,0H8.9a1.416,1.416,0,0,1,1.406,1.406A1.416,1.416,0,0,1,8.9,2.811Z" transform="translate(17.336 8.902)" fill="#e24291"/>
  <path id="Vector-3" data-name="Vector" d="M4.311,8.621A4.311,4.311,0,1,1,8.621,4.311,4.311,4.311,0,0,1,4.311,8.621Zm0-5.829a1.5,1.5,0,1,0,1.5,1.5A1.5,1.5,0,0,0,4.311,2.793Z" transform="translate(18.18 28.6)" fill="#e24291"/>
  <path id="Vector-4" data-name="Vector" d="M0,0H44.98V44.98H0Z" fill="none" opacity="0"/>
</svg>
