<svg xmlns="http://www.w3.org/2000/svg" width="64.603" height="58.557" viewBox="0 0 64.603 58.557">
  <g id="plane" transform="translate(-236.641 -262.5)">
    <path id="Path_855" data-name="Path 855" d="M250.917,264.935a1.078,1.078,0,0,0,.3.047,1.014,1.014,0,1,0-.3-.047Z" transform="translate(9.132 0.311)" fill="#0d0c22"/>
    <path id="Path_856" data-name="Path 856" d="M239.017,291.874a32.069,32.069,0,0,0,5.9,8.467,1.009,1.009,0,1,0,1.464-1.39l0,0c-5.118-5.4-7.715-11.345-7.716-17.661a16.763,16.763,0,0,1,4.864-11.862,16.417,16.417,0,0,1,11.732-4.907c.358,0,.716.012,1.067.035a1.01,1.01,0,1,0,.132-2.016c-.4-.025-.8-.039-1.2-.039h0a18.325,18.325,0,0,0-7.248,1.479,18.783,18.783,0,0,0-11.365,17.31,24.641,24.641,0,0,0,.632,5.556A25.566,25.566,0,0,0,239.017,291.874Z" transform="translate(0)" fill="#0d0c22"/>
    <path id="Path_857" data-name="Path 857" d="M252.9,266.79l0,0a16.992,16.992,0,0,1,4.644,4.076l.791,1,.791-1a16.44,16.44,0,0,1,12.9-6.348h0a16.62,16.62,0,0,1,16.58,16.1,1,1,0,0,0,1.005.97h.042a1.011,1.011,0,0,0,.97-1.047,18.821,18.821,0,0,0-5.68-12.782,18.551,18.551,0,0,0-5.834-3.853,18.335,18.335,0,0,0-7.087-1.41h0a18.036,18.036,0,0,0-7.622,1.68,18.455,18.455,0,0,0-3.271,1.949,19.045,19.045,0,0,0-2.8,2.548,18.993,18.993,0,0,0-4.405-3.622,1.01,1.01,0,0,0-1.034,1.735Z" transform="translate(10.611)" fill="#0d0c22"/>
    <path id="Path_858" data-name="Path 858" d="M249.954,289.619h0l-.02-.012a1,1,0,0,0-.505-.137,1.01,1.01,0,0,0-1.011,1.009.992.992,0,0,0,.033.263,1.009,1.009,0,1,0,1.5-1.123Z" transform="translate(7.928 18.153)" fill="#0d0c22"/>
    <path id="Path_859" data-name="Path 859" d="M290.077,277.5a1.023,1.023,0,0,0-.31-.048,1.008,1.008,0,0,0-.96.7,28.471,28.471,0,0,1-6.846,10.957,55.9,55.9,0,0,1-14.748,10.463c-2.349,1.185-4.385,2.048-5.68,2.561-.731.291-1.3.5-1.658.629l-.271.1c-.161-.055-.423-.149-.768-.278-.316-.117-.657-.248-1.019-.388-1.317-.52-3.391-1.394-5.8-2.6a1.009,1.009,0,1,0-.967,1.772l.059.03c2.473,1.246,4.609,2.147,5.964,2.68l.005,0c.37.146.723.281,1.049.4.745.278,1.158.412,1.161.413l.313.1.313-.1.012,0a69.868,69.868,0,0,0,13.179-6.277,51.957,51.957,0,0,0,10.308-8.094,34.943,34.943,0,0,0,4.3-5.4,27.354,27.354,0,0,0,3.018-6.344,1.012,1.012,0,0,0-.653-1.272Z" transform="translate(9.346 10.064)" fill="#0d0c22"/>
    <path id="Path_860" data-name="Path 860" d="M275.068,275.118a.676.676,0,0,0-.142-.01,1.01,1.01,0,1,0,.142.01Z" transform="translate(25.089 8.486)" fill="#0d0c22"/>
    <path id="Path_861" data-name="Path 861" d="M276.013,293.471a1.01,1.01,0,0,0,.49-1.959l-.7-.174V287.3l-8.616-2.155-5.317-4.43,1.63-4.076,6.823-4.547-4.439-4.439.509-1.272a1.01,1.01,0,1,0-1.865-.773l-.01.023-1,2.506,3.639,3.639-5.294,3.53-2.408,6.02,6.8,5.665,7.535,1.884v4.039Z" transform="translate(15.354 1.672)" fill="#0d0c22"/>
    <path id="Path_862" data-name="Path 862" d="M262.2,285.867l-3.406,2.27,1.688,3.375H267.7l4.8-7.2-4.92-4.919h-4.3Zm2.789-4.452h1.757l3.157,3.159-3.279,4.919H261.73l-.333-.664,2.652-1.767Z" transform="translate(14.91 11.373)" fill="#0d0c22"/>
    <path id="Path_863" data-name="Path 863" d="M243.437,281.57l-2.935-.733a1.01,1.01,0,1,0-.5,1.956l.013,0,4.507,1.126,2.21-4.419,5.652-2.262-3.582-8.359-3.718-1.857a1.01,1.01,0,0,0-.9,1.807l3.055,1.526,2.474,5.777-4.444,1.777Z" transform="translate(1.75 2.974)" fill="#0d0c22"/>
    <path id="Path_864" data-name="Path 864" d="M250.214,272.547v4.183l7.251-2.9-1.318-5.272-3.724-2.483-5.948,1.487Zm4.164-2.742.7,2.8-2.846,1.138v-1.874l-2.319-3.09,2.131-.534Z" transform="translate(6.619 2.406)" fill="#0d0c22"/>
    <path id="Path_865" data-name="Path 865" d="M260.314,291.615l5.043,9.366,3.544-3.544-3.57-10.708,5.27-5.27a4.039,4.039,0,0,0-5.712-5.712l-5.27,5.27-10.708-3.569-3.542,3.542,9.364,5.043-8.069,9.312-3.523-.706-2.525,2.525,8.568,8.568,2.523-2.525-.7-3.523Zm-11.131,11.261-5.712-5.712.333-.331,3.616.723,10.49-12.1-9.2-4.952.741-.741,10.708,3.57,6.154-6.154a2.02,2.02,0,0,1,2.881,2.831l-.025.025-6.154,6.152,3.57,10.709-.741.741-4.952-9.2-12.1,10.49.723,3.615Z" transform="translate(2.675 8.128)" fill="#0d0c22"/>
    <path id="Path_866" data-name="Path 866" d="M241.155,295.74a1,1,0,0,0,.719-.3l2.213-2.249a1.01,1.01,0,1,0-1.4-1.454l-.037.039-2.213,2.247a1.009,1.009,0,0,0,.719,1.718Z" transform="translate(2.359 19.488)" fill="#0d0c22"/>
    <path id="Path_867" data-name="Path 867" d="M239.462,294.529a1.011,1.011,0,1,0,.709.291A1.011,1.011,0,0,0,239.462,294.529Z" transform="translate(1.22 21.558)" fill="#0d0c22"/>
    <path id="Path_868" data-name="Path 868" d="M237.77,296.25a1.01,1.01,0,1,0,1.009,1.011v-.01A1.009,1.009,0,0,0,237.77,296.25Z" transform="translate(0.079 22.716)" fill="#0d0c22"/>
    <path id="Path_869" data-name="Path 869" d="M237.652,296.722a1.006,1.006,0,0,0,.713-.294l5.049-5.049a1.01,1.01,0,1,0-1.429-1.427h0L236.937,295a1.009,1.009,0,0,0,.714,1.723Z" transform="translate(0 18.277)" fill="#0d0c22"/>
    <path id="Path_870" data-name="Path 870" d="M245.606,293.572l-5.048,5.048a1.009,1.009,0,0,0,1.427,1.427L247.033,295a1.009,1.009,0,0,0-1.427-1.427Z" transform="translate(2.437 20.714)" fill="#0d0c22"/>
  </g>
</svg>
