<svg xmlns="http://www.w3.org/2000/svg" width="47.037" height="47.037" viewBox="0 0 47.037 47.037">
  <g id="vuesax_outline_coin" data-name="vuesax/outline/coin" transform="translate(-1)">
    <g id="coin" transform="translate(1)">
      <path id="Vector" d="M0,0H47.037V47.037H0Z" fill="none" opacity="0"/>
      <g id="valu-logoo" transform="translate(3.999 7.834)">
        <path id="Path_92787" data-name="Path 92787" d="M836.531-655.767c-.049.012-.3.056-.557.093a6.826,6.826,0,0,0-3.4,1.707,7.3,7.3,0,0,0-1.911,3.211l-.167.618v4.114c0,4.472.006,4.559.377,6.34A18.765,18.765,0,0,0,840.8-626.9a18.731,18.731,0,0,0,5.908,1.831,24.534,24.534,0,0,0,5.041-.025,18.61,18.61,0,0,0,7.732-2.951,18.8,18.8,0,0,0,7.819-11.06c.47-1.9.532-2.759.532-7.039,0-3.909-.013-4.114-.334-5.048a6.741,6.741,0,0,0-5-4.46,6.448,6.448,0,0,0-1.4-.1,5.8,5.8,0,0,0-2.611.513,6.925,6.925,0,0,0-3.421,3.3c-.606,1.324-.649,1.664-.649,5.548,0,1.911-.025,3.347-.068,3.588a5.224,5.224,0,0,1-1.4,2.8,5.268,5.268,0,0,1-2.592,1.515,6.665,6.665,0,0,1-2.4-.006,5.359,5.359,0,0,1-3.551-2.957c-.464-1-.458-.891-.5-5l-.037-3.68-.167-.618a6.77,6.77,0,0,0-5.146-4.893A10.332,10.332,0,0,0,836.531-655.767Zm1.577,1.584a5.3,5.3,0,0,1,3.854,3.1c.39.916.4.953.446,5,.043,3.507.049,3.7.179,4.157a6.87,6.87,0,0,0,4.93,4.88,5.152,5.152,0,0,0,1.664.148,5.383,5.383,0,0,0,2.685-.519,6.209,6.209,0,0,0,2.109-1.484,6.5,6.5,0,0,0,1.812-3.316,24.07,24.07,0,0,0,.161-4.206l.037-3.65.21-.606a5.181,5.181,0,0,1,3.142-3.254,4.785,4.785,0,0,1,2.073-.3,5.189,5.189,0,0,1,4.763,3.916c.142.489.142.538.142,4.206,0,3.947-.018,4.256-.315,5.8a17.242,17.242,0,0,1-12.65,13.343,17.414,17.414,0,0,1-10.113-.526c-.34-.124-1.083-.458-1.664-.736a17.022,17.022,0,0,1-7.8-7.8,16.439,16.439,0,0,1-1.763-6.829,72,72,0,0,1,.087-7.324,5.329,5.329,0,0,1,4.033-3.971A6.623,6.623,0,0,1,838.108-654.183Z" transform="translate(-830.5 655.862)"/>
        <path id="Path_92788" data-name="Path 92788" d="M926.578-496.575a.767.767,0,0,0-.5.433,13.745,13.745,0,0,0-.025,2.957,12.952,12.952,0,0,0,2.518,6.575,17.518,17.518,0,0,0,2.1,2.19,13.071,13.071,0,0,0,5.512,2.617,12.789,12.789,0,0,0,10.441-2.474,12.854,12.854,0,0,0,4.41-6.711,11.568,11.568,0,0,0,.421-3.464l.031-1.577-.148-.217a.711.711,0,0,0-.891-.278c-.47.179-.482.217-.526,2.072a12.8,12.8,0,0,1-.173,2.314,11.556,11.556,0,0,1-2.6,5.252,11.412,11.412,0,0,1-6.347,3.631,12.958,12.958,0,0,1-3.247.13,10.989,10.989,0,0,1-6.81-3.328,10.963,10.963,0,0,1-3-5.611,9.612,9.612,0,0,1-.192-2.295,16.331,16.331,0,0,0-.086-1.745A.8.8,0,0,0,926.578-496.575Z" transform="translate(-920.083 506.517)"/>
      </g>
    </g>
  </g>
</svg>
