<svg id="vuesax_outline_ticket" data-name="vuesax/outline/ticket" xmlns="http://www.w3.org/2000/svg" width="46.188" height="46.188" viewBox="0 0 46.188 46.188">
  <g id="ticket">
    <path id="Vector" d="M30.311,33.678H11.066C2.579,33.678,0,31.1,0,22.613V21.65a1.454,1.454,0,0,1,1.443-1.443,3.368,3.368,0,1,0,0-6.736A1.454,1.454,0,0,1,0,12.028v-.962C0,2.579,2.579,0,11.066,0H30.311C38.8,0,41.376,2.579,41.376,11.066V12.99a1.454,1.454,0,0,1-1.443,1.443,3.368,3.368,0,1,0,0,6.736,1.454,1.454,0,0,1,1.443,1.443C41.376,31.1,38.8,33.678,30.311,33.678ZM2.887,22.921c.038,6.62,1.4,7.871,8.179,7.871H30.311c6.428,0,7.987-1.135,8.16-6.909A6.252,6.252,0,0,1,38.49,11.72v-.654c0-6.87-1.289-8.179-8.179-8.179H11.066c-6.774,0-8.141,1.251-8.179,7.871a6.249,6.249,0,0,1,0,12.163Z" transform="translate(2.406 6)" fill="#e24291"/>
    <path id="Vector-2" data-name="Vector" d="M1.443,7.7A1.454,1.454,0,0,1,0,6.255V1.443A1.454,1.454,0,0,1,1.443,0,1.454,1.454,0,0,1,2.887,1.443V6.255A1.454,1.454,0,0,1,1.443,7.7Z" transform="translate(17.801 6.255)" fill="#e24291"/>
    <path id="Vector-3" data-name="Vector" d="M1.443,9.95A1.454,1.454,0,0,1,0,8.506V1.443A1.454,1.454,0,0,1,1.443,0,1.454,1.454,0,0,1,2.887,1.443V8.506A1.441,1.441,0,0,1,1.443,9.95Z" transform="translate(17.801 18.109)" fill="#e24291"/>
    <path id="Vector-4" data-name="Vector" d="M1.443,7.7A1.454,1.454,0,0,1,0,6.255V1.443A1.454,1.454,0,0,1,1.443,0,1.454,1.454,0,0,1,2.887,1.443V6.255A1.454,1.454,0,0,1,1.443,7.7Z" transform="translate(17.801 32.235)" fill="#e24291"/>
    <path id="Vector-5" data-name="Vector" d="M0,0H46.188V46.188H0Z" fill="none" opacity="0"/>
  </g>
</svg>
