<svg id="vuesax_outline_moneys" data-name="vuesax/outline/moneys" xmlns="http://www.w3.org/2000/svg" width="47.086" height="47.086" viewBox="0 0 47.086 47.086">
  <g id="moneys">
    <path id="Vector" d="M27.349,30.331H10.1a12.927,12.927,0,0,1-2.845-.294,7.338,7.338,0,0,1-1.57-.432C3.08,28.624,0,26.211,0,20.208V10.1C0,3.688,3.688,0,10.1,0H27.349c5.415,0,8.907,2.59,9.849,7.3a13.935,13.935,0,0,1,.255,2.806v10.1C37.453,26.662,33.784,30.331,27.349,30.331ZM10.123,2.982c-4.826,0-7.161,2.335-7.161,7.161v10.1c0,3.512,1.236,5.67,3.767,6.631a6.766,6.766,0,0,0,1.118.294,10.787,10.787,0,0,0,2.276.235H27.369c4.826,0,7.161-2.335,7.161-7.161v-10.1a10.964,10.964,0,0,0-.2-2.217c-.667-3.335-2.943-4.944-6.965-4.944Z" transform="translate(1.864 5.415)" fill="#e24291"/>
    <path id="Vector-2" data-name="Vector" d="M27.123,30.076H9.878a12.363,12.363,0,0,1-4.434-.726A8.407,8.407,0,0,1,.029,22.738,1.45,1.45,0,0,1,.441,21.4a1.432,1.432,0,0,1,1.354-.373,10.553,10.553,0,0,0,2.2.216H21.237c4.826,0,7.161-2.335,7.161-7.161V3.982a10.964,10.964,0,0,0-.2-2.217A1.508,1.508,0,0,1,28.594.431,1.406,1.406,0,0,1,29.928.039c4.709.961,7.3,4.454,7.3,9.829v10.1C37.227,26.407,33.558,30.076,27.123,30.076ZM3.639,24.19A5.15,5.15,0,0,0,6.5,26.6a9.71,9.71,0,0,0,3.394.53H27.142c4.826,0,7.161-2.335,7.161-7.161V9.868c0-3.1-.961-5.16-2.943-6.239V14.086c0,6.415-3.688,10.1-10.1,10.1H3.639Z" transform="translate(7.976 11.556)" fill="#e24291"/>
    <path id="Vector-3" data-name="Vector" d="M6.651,13.3A6.651,6.651,0,1,1,13.3,6.651,6.657,6.657,0,0,1,6.651,13.3Zm0-10.359a3.708,3.708,0,1,0,3.708,3.708A3.718,3.718,0,0,0,6.651,2.943Z" transform="translate(13.949 13.949)" fill="#e24291"/>
    <path id="Vector-4" data-name="Vector" d="M1.471,11.575A1.482,1.482,0,0,1,0,10.1V1.471A1.482,1.482,0,0,1,1.471,0,1.482,1.482,0,0,1,2.943,1.471V10.1A1.469,1.469,0,0,1,1.471,11.575Z" transform="translate(7.907 14.813)" fill="#e24291"/>
    <path id="Vector-5" data-name="Vector" d="M1.471,11.575A1.482,1.482,0,0,1,0,10.1V1.471A1.482,1.482,0,0,1,1.471,0,1.482,1.482,0,0,1,2.943,1.471V10.1A1.469,1.469,0,0,1,1.471,11.575Z" transform="translate(30.331 14.813)" fill="#e24291"/>
    <path id="Vector-6" data-name="Vector" d="M0,0H47.086V47.086H0Z" fill="none" opacity="0"/>
  </g>
</svg>
