<svg id="vuesax_outline_card" data-name="vuesax/outline/card" xmlns="http://www.w3.org/2000/svg" width="48.219" height="48.219" viewBox="0 0 48.219 48.219">
  <g id="card">
    <path id="Vector" d="M41.689,3.014H1.507A1.518,1.518,0,0,1,0,1.507,1.518,1.518,0,0,1,1.507,0H41.689A1.518,1.518,0,0,1,43.2,1.507,1.518,1.518,0,0,1,41.689,3.014Z" transform="translate(2.511 15.571)" fill="#e24291"/>
    <path id="Vector-2" data-name="Vector" d="M5.525,3.014H1.507A1.518,1.518,0,0,1,0,1.507,1.518,1.518,0,0,1,1.507,0H5.525A1.518,1.518,0,0,1,7.032,1.507,1.518,1.518,0,0,1,5.525,3.014Z" transform="translate(10.548 31.643)" fill="#e24291"/>
    <path id="Vector-3" data-name="Vector" d="M9.543,3.014H1.507A1.518,1.518,0,0,1,0,1.507,1.518,1.518,0,0,1,1.507,0H9.543A1.518,1.518,0,0,1,11.05,1.507,1.518,1.518,0,0,1,9.543,3.014Z" transform="translate(19.589 31.643)" fill="#e24291"/>
    <path id="Vector-4" data-name="Vector" d="M32.769,37.169H10.427C2.431,37.169,0,34.758,0,26.842V10.327C0,2.411,2.431,0,10.427,0H32.748c8,0,10.427,2.411,10.427,10.327V26.822C43.2,34.758,40.765,37.169,32.769,37.169ZM10.427,3.014c-6.309,0-7.414,1.085-7.414,7.313V26.822c0,6.228,1.105,7.313,7.414,7.313H32.748c6.309,0,7.414-1.085,7.414-7.313V10.327c0-6.228-1.105-7.313-7.414-7.313Z" transform="translate(2.511 5.525)" fill="#e24291"/>
    <path id="Vector-5" data-name="Vector" d="M0,0H48.219V48.219H0Z" fill="none" opacity="0"/>
  </g>
</svg>
