<svg id="wallet" xmlns="http://www.w3.org/2000/svg" width="45.758" height="45.758" viewBox="0 0 45.758 45.758">
  <path id="Vector" d="M1.427,17.559a1.463,1.463,0,0,1-1.01-.419,1.443,1.443,0,0,1-.305-1.563L3.658,7.111a4.112,4.112,0,0,1,.172-.381c2.822-6.5,6.425-8.084,12.793-5.643a1.4,1.4,0,0,1,.8.782,1.44,1.44,0,0,1,0,1.125L11.837,15.958a1.415,1.415,0,0,1-1.316.858H5.088a7.874,7.874,0,0,0-3.108.629A1.368,1.368,0,0,1,1.427,17.559ZM11.742,2.86C9.378,2.86,7.929,4.4,6.422,7.912c-.019.057-.057.114-.076.172l-2.5,5.929c.419-.038.82-.057,1.239-.057h4.48L14.163,3.279A7.985,7.985,0,0,0,11.742,2.86Z" transform="translate(8.487 2.383)" fill="#e24291"/>
  <path id="Vector-2" data-name="Vector" d="M17.292,16.2a1.588,1.588,0,0,1-.419-.057,8.191,8.191,0,0,0-2.288-.324H1.429a1.459,1.459,0,0,1-1.2-.648,1.48,1.48,0,0,1-.114-1.354L5.643.982A1.556,1.556,0,0,1,7.473.066c.229.076.439.172.667.267l4.5,1.888a13.8,13.8,0,0,1,5.529,3.6,6.958,6.958,0,0,1,.61.858,4.952,4.952,0,0,1,.534,1.106,3.7,3.7,0,0,1,.21.648c.534,1.811.267,4.023-.877,6.883A1.506,1.506,0,0,1,17.292,16.2ZM3.6,12.955h11a11.181,11.181,0,0,1,1.792.153,6.792,6.792,0,0,0,.343-3.966c-.038-.172-.076-.248-.1-.324a3.4,3.4,0,0,0-.286-.629,4.032,4.032,0,0,0-.381-.553,11.332,11.332,0,0,0-4.442-2.8L7.778,3.269Z" transform="translate(17.58 3.384)" fill="#e24291"/>
  <path id="Vector-3" data-name="Vector" d="M27.455,27.035H12.583a13.1,13.1,0,0,1-1.525-.1C4.366,26.5.553,22.669.1,15.9A11.086,11.086,0,0,1,0,14.452V10.734A10.7,10.7,0,0,1,10.734,0H29.342A10.385,10.385,0,0,1,32.45.458a10.819,10.819,0,0,1,7.626,10.276v3.718c0,.419-.019.82-.038,1.2C39.619,23.108,35.272,27.035,27.455,27.035ZM10.715,2.86a7.845,7.845,0,0,0-7.874,7.874v3.718c0,.4.038.8.076,1.182.362,5.434,3.031,8.1,8.389,8.465a10.339,10.339,0,0,0,1.258.1H27.436c6.292,0,9.38-2.765,9.685-8.675.019-.343.038-.686.038-1.068V10.734a7.96,7.96,0,0,0-5.586-7.55,8.191,8.191,0,0,0-2.288-.324Z" transform="translate(2.86 16.339)" fill="#e24291"/>
  <path id="Vector-4" data-name="Vector" d="M1.43,19.376A1.44,1.44,0,0,1,0,17.946V12.36A12.564,12.564,0,0,1,10.124.024a1.485,1.485,0,0,1,1.392.5,1.426,1.426,0,0,1,.21,1.449L8.389,9.938a1.525,1.525,0,0,1-.744.763,7.9,7.9,0,0,0-4.766,7.245A1.457,1.457,0,0,1,1.43,19.376Zm6.406-15.5A9.734,9.734,0,0,0,3.07,10.453,10.409,10.409,0,0,1,5.987,8.337Z" transform="translate(2.841 9.127)" fill="#e24291"/>
  <path id="Vector-5" data-name="Vector" d="M8.035,18.315a1.44,1.44,0,0,1-1.43-1.43,7.96,7.96,0,0,0-5.586-7.55A1.416,1.416,0,0,1,.1,7.447C1,5.216,1.228,3.6.866,2.338.828,2.166.79,2.09.771,2.013A1.433,1.433,0,0,1,1.095.393,1.417,1.417,0,0,1,2.735.164,12.524,12.524,0,0,1,9.465,11.3v5.586A1.44,1.44,0,0,1,8.035,18.315ZM3.249,7.142A10.457,10.457,0,0,1,6.414,9.411a9.554,9.554,0,0,0-2.574-4.9A14.15,14.15,0,0,1,3.249,7.142Z" transform="translate(33.452 10.189)" fill="#e24291"/>
  <path id="Vector-6" data-name="Vector" d="M0,0H45.758V45.758H0Z" fill="none" opacity="0"/>
</svg>
